<svg width="24" height="24" viewBox="0 0 24 24" fill="none" xmlns="http://www.w3.org/2000/svg">
<rect x="2" width="20" height="14" rx="1" fill="white"/>
<path fill-rule="evenodd" clip-rule="evenodd" d="M12 3C11.4477 3 11 3.44772 11 4V6H9C8.44772 6 8 6.44772 8 7C8 7.55228 8.44772 8 9 8H11V10C11 10.5523 11.4477 11 12 11C12.5523 11 13 10.5523 13 10V8H15C15.5523 8 16 7.55228 16 7C16 6.44772 15.5523 6 15 6H13V4C13 3.44772 12.5523 3 12 3Z" fill="#444245"/>
<path d="M16 17L12 21L8 17" stroke="white" stroke-width="2" stroke-linecap="round" stroke-linejoin="round"/>
</svg>
