<svg width="24" height="24" viewBox="0 0 24 24" fill="none" xmlns="http://www.w3.org/2000/svg">
<g clip-path="url(#clip0_44323_8346)">
<path d="M10.9999 7.49997H5.66665C4.19999 7.49997 3 8.69996 3 10.1666V12.8333C3 14.2999 4.19999 15.4999 5.66665 15.4999H6.99997V19.4999C6.99997 20.2332 7.59997 20.8332 8.33329 20.8332C9.06662 20.8332 9.66662 20.2332 9.66662 19.4999V15.4999H10.9999L16.9093 19.0455C17.2426 19.2455 17.6666 19.0054 17.6666 18.6168V4.3831C17.6666 3.99445 17.2426 3.75439 16.9093 3.95435L10.9999 7.49997Z" fill="#7134F3"/>
<path d="M21 11.4998C21 10.1274 20.5368 8.85886 19.7588 7.84861C19.4953 7.50655 19 7.71689 19 8.14864V14.8467C19 15.277 19.4926 15.4879 19.7564 15.1479C20.5359 14.1434 21 12.8736 21 11.4998Z" fill="#7134F3"/>
</g>
<defs>
<clipPath id="clip0_44323_8346">
<rect width="24" height="24" fill="white"/>
</clipPath>
</defs>
</svg>
