<svg width="68" height="69" viewBox="0 0 68 69" fill="none" xmlns="http://www.w3.org/2000/svg">
<path fill-rule="evenodd" clip-rule="evenodd" d="M55.041 34.5003C55.041 32.5496 56.6341 30.9565 58.5848 30.9565H64.2723C66.2229 30.9565 67.816 32.5496 67.816 34.5003C67.816 36.451 66.2229 38.044 64.2723 38.044H58.5848C56.6341 38.044 55.041 36.451 55.041 34.5003ZM58.5848 32.3565C57.4073 32.3565 56.441 33.3228 56.441 34.5003C56.441 35.6778 57.4073 36.644 58.5848 36.644H64.2723C65.4497 36.644 66.416 35.6778 66.416 34.5003C66.416 33.3228 65.4497 32.3565 64.2723 32.3565H58.5848Z" fill="#BEBEBE"/>
<path fill-rule="evenodd" clip-rule="evenodd" d="M51.0398 48.5563C52.214 46.9538 54.4493 46.5663 56.048 47.7935L56.0509 47.7958C57.5513 48.9476 59.1677 50.1885 60.698 51.3707C62.2326 52.5175 62.5698 54.6816 61.5239 56.2712V56.2932L61.3945 56.4753C60.2385 58.1023 57.9937 58.4331 56.4093 57.2168L56.4076 57.2155C54.8773 56.0332 53.2619 54.7932 51.7339 53.6422C50.1977 52.4972 49.8568 50.359 50.9045 48.7686V48.741L51.0398 48.5563ZM61.3391 56.5294L61.344 56.5243C61.3405 56.528 61.3376 56.531 61.3391 56.5294ZM52.2214 49.315C52.2032 49.3512 52.1864 49.3776 52.1766 49.3927C52.1589 49.4198 52.1418 49.4425 52.1275 49.4603C51.4106 50.4578 51.6214 51.8132 52.5716 52.5205L52.5747 52.5228L52.5747 52.5229C54.1095 53.6789 55.7302 54.9231 57.2626 56.1069C58.177 56.8082 59.4366 56.6571 60.1528 55.7951V55.7817L60.2881 55.597C61.0213 54.5964 60.811 53.2001 59.8568 52.4898L59.8467 52.4823L59.8468 52.4822C58.3167 51.3002 56.6998 50.0589 55.1973 48.9054L55.1954 48.904C54.2728 48.1957 52.9651 48.3739 52.2214 49.315ZM60.3376 55.5511L60.3327 55.5562C60.3362 55.5525 60.3391 55.5496 60.3376 55.5511Z" fill="#BEBEBE"/>
<path fill-rule="evenodd" clip-rule="evenodd" d="M56.4052 11.7824C57.9724 10.562 60.2143 10.9082 61.396 12.5097L61.5327 12.695V12.7267C62.5465 14.3001 62.2532 16.4564 60.7354 17.6062C60.285 17.9517 59.8256 18.306 59.3623 18.6633C58.2541 19.518 57.1233 20.3901 56.038 21.202C54.4467 22.4129 52.2373 22.074 51.0535 20.4698L50.9168 20.2844V20.2597C49.865 18.7005 50.1797 16.546 51.7105 15.3761C52.6725 14.624 53.6976 13.8446 54.7095 13.0753C55.2836 12.6389 55.8535 12.2056 56.4052 11.7824ZM60.1617 13.2058C59.4122 12.3355 58.1452 12.2006 57.2639 12.8881L57.2595 12.8916L57.2594 12.8916C56.6964 13.3235 56.121 13.7609 55.5443 14.1994C54.5374 14.9648 53.5264 15.7334 52.5696 16.4815L52.5629 16.4868L52.5629 16.4867C51.5987 17.2218 51.4189 18.6097 52.1465 19.5734L52.2878 19.7607V19.7738C53.0335 20.6419 54.2785 20.7829 55.1918 20.0866L55.1969 20.0827L55.1969 20.0828C56.2744 19.2769 57.3926 18.4144 58.4981 17.5618C58.964 17.2025 59.4276 16.8449 59.885 16.494L59.8888 16.4912L59.8888 16.4912C60.8128 15.7922 61.0136 14.3996 60.2924 13.3916L60.1617 13.2089V13.2058Z" fill="#BEBEBE"/>
<path d="M22.375 23.5531H8.125C4.20625 23.5531 1 26.7659 1 30.6925V37.832C1 41.7587 4.20625 44.9714 8.125 44.9714H11.6875V55.6805C11.6875 57.6439 13.2906 59.2502 15.25 59.2502C17.2094 59.2502 18.8125 57.6439 18.8125 55.6805V44.9714H22.375L37.157 53.8585C38.49 54.66 40.1875 53.6998 40.1875 52.1445V16.38C40.1875 14.8247 38.49 13.8646 37.157 14.666L22.375 23.5531Z" fill="#EAEAEA"/>
<path fill-rule="evenodd" clip-rule="evenodd" d="M22.7635 24.9531H8.125C4.98212 24.9531 2.4 27.5364 2.4 30.6925V37.832C2.4 40.9881 4.98212 43.5714 8.125 43.5714H13.0875V55.6805C13.0875 56.8733 14.0665 57.8502 15.25 57.8502C16.4335 57.8502 17.4125 56.8733 17.4125 55.6805V43.5714H22.7635L37.8783 52.6587C38.2783 52.8991 38.7875 52.6111 38.7875 52.1445V16.38C38.7875 15.9134 38.2783 15.6254 37.8783 15.8658L22.7635 24.9531ZM8.125 23.5531H22.375L37.157 14.666C38.49 13.8646 40.1875 14.8247 40.1875 16.38V52.1445C40.1875 53.6998 38.49 54.66 37.157 53.8585L22.375 44.9714H18.8125V55.6805C18.8125 57.6439 17.2094 59.2502 15.25 59.2502C13.2906 59.2502 11.6875 57.6439 11.6875 55.6805V44.9714H8.125C4.20625 44.9714 1 41.7587 1 37.832V30.6925C1 26.7659 4.20625 23.5531 8.125 23.5531Z" fill="#BEBEBE"/>
<path fill-rule="evenodd" clip-rule="evenodd" d="M43.5605 24.3704C44.1354 24.1208 44.8476 24.221 45.3431 24.7756C47.7066 27.4216 49.1383 30.8548 49.1383 34.5947C49.1383 38.3368 47.7048 41.7732 45.3364 44.4029C44.84 44.9541 44.1293 45.0519 43.5562 44.8012C42.9945 44.5556 42.582 43.9864 42.582 43.2785V25.8953C42.582 25.1851 42.9969 24.6151 43.5605 24.3704ZM44.1181 25.6546C44.0537 25.6825 43.982 25.756 43.982 25.8953V43.2785C43.982 43.4173 44.0534 43.4907 44.1172 43.5186C44.1503 43.533 44.1787 43.5343 44.2 43.5301C44.2172 43.5266 44.2514 43.5156 44.2961 43.466C46.4463 41.0786 47.7383 37.9714 47.7383 34.5947C47.7383 31.2207 46.4483 28.1145 44.2989 25.7083C44.2541 25.6581 44.2196 25.6468 44.202 25.6432C44.1804 25.6388 44.1515 25.6401 44.1181 25.6546Z" fill="#BEBEBE"/>
</svg>
