<svg width="24" height="24" viewBox="0 0 24 24" fill="none" xmlns="http://www.w3.org/2000/svg">
<path fill-rule="evenodd" clip-rule="evenodd" d="M15.4307 3.67239C16.2475 2.70063 16.7959 1.34648 16.6461 0C15.4716 0.0469591 14.05 0.771471 13.209 1.74324C12.4535 2.60384 11.7923 3.98098 11.9712 5.30063C13.2799 5.40126 14.6179 4.64512 15.4327 3.67239H15.4307ZM18.3691 12.219C18.4022 15.6997 21.4669 16.8583 21.5 16.8737C21.4757 16.9551 21.0119 18.5239 19.8859 20.1445C18.9136 21.5456 17.9043 22.9419 16.3136 22.9707C14.7511 22.9985 14.2494 22.0574 12.4622 22.0574C10.677 22.0574 10.1189 22.9419 8.63902 22.9985C7.10469 23.056 5.93595 21.4833 4.9539 20.088C2.95091 17.2321 1.41949 12.0187 3.47596 8.4996C4.49593 6.75157 6.32197 5.64468 8.30357 5.61689C9.81068 5.58814 11.2332 6.61644 12.154 6.61644C13.0758 6.61644 14.8046 5.38017 16.6218 5.5613C17.3832 5.59293 19.5184 5.86414 20.8904 7.84313C20.7795 7.91022 18.3419 9.30941 18.3681 12.219" fill="black"/>
</svg>
