<svg width="68" height="69" viewBox="0 0 68 69" fill="none" xmlns="http://www.w3.org/2000/svg">
<path d="M8.4604 56.3659L17.4366 27.4671C18.2028 25.1683 20.2827 23.6358 22.6909 23.6358H58.9239V22.5412C58.9239 20.6803 57.5008 19.2572 55.6399 19.2572H33.7469C33.4185 19.2572 33.1996 19.1478 32.9806 18.9288L25.537 11.4852C24.8802 10.8284 24.1139 10.5 23.2382 10.5H5.28591C3.425 10.5 2.00195 11.923 2.00195 13.784V55.3808C2.00195 59.2 7.37451 59.8951 8.4604 56.3659Z" fill="#EAEAEA"/>
<path fill-rule="evenodd" clip-rule="evenodd" d="M7.12231 55.9542L7.12341 55.9507L16.1038 27.0381L16.1084 27.0244C17.0601 24.1691 19.6642 22.2358 22.6909 22.2358H57.5022C57.368 21.3077 56.623 20.6572 55.6399 20.6572H33.7469C33.4193 20.6572 33.0838 20.601 32.7541 20.4545C32.4305 20.3106 32.1828 20.1109 31.9907 19.9188L24.547 12.4751C24.1351 12.0632 23.7184 11.9 23.2382 11.9H5.28591C4.1982 11.9 3.40195 12.6962 3.40195 13.784V55.3808C3.40195 56.4831 4.11726 57.1146 5.02083 57.2429C5.94473 57.3741 6.81729 56.9456 7.12231 55.9542ZM58.9109 22.2358C58.7647 20.5268 57.3977 19.2572 55.6399 19.2572H33.7469C33.4185 19.2572 33.1996 19.1478 32.9806 18.9288L25.537 11.4852C24.8802 10.8284 24.1139 10.5 23.2382 10.5H5.28591C3.425 10.5 2.00195 11.923 2.00195 13.784V55.3808C2.00195 59.2 7.37451 59.8951 8.4604 56.3659L17.4366 27.4671C18.2028 25.1683 20.2827 23.6358 22.6909 23.6358H58.9239V22.5412C58.9239 22.438 58.9195 22.3362 58.9109 22.2358Z" fill="#BEBEBE"/>
<path fill-rule="evenodd" clip-rule="evenodd" d="M64.4892 29.6642L64.4934 29.6516C64.6947 29.0478 64.6121 28.4434 64.2637 27.9788C63.8713 27.4556 63.4105 27.2252 62.7565 27.2252H22.6923C21.9341 27.2252 21.1906 27.6636 20.7158 28.6341L11.823 57.2648H54.4372C55.3757 57.2648 56.0225 56.7704 56.2736 55.9543L56.2754 55.9484L64.4892 29.6642ZM11.7503 57.4322L10.4321 57.0228L19.4083 28.124C20.0651 26.7009 21.2692 25.8252 22.6923 25.8252H62.7565C63.8512 25.8252 64.7269 26.2631 65.3837 27.1388C66.0405 28.0145 66.15 29.1092 65.8216 30.0943L57.6117 56.366C57.1738 57.7891 55.9697 58.6648 54.4372 58.6648H11.422C10.6533 58.6648 10.1467 57.7365 10.4321 57.0228L11.732 57.5427C11.753 57.4902 11.7524 57.4517 11.7509 57.4365C11.7507 57.435 11.7505 57.4336 11.7503 57.4322Z" fill="#BEBEBE"/>
</svg>
