<svg width="24" height="24" viewBox="0 0 24 24" fill="none" xmlns="http://www.w3.org/2000/svg">
<path d="M11.2927 12.7071C11.1117 12.5261 10.9999 12.276 10.9999 11.9999V6.99974C10.9999 6.44744 11.4475 5.99979 11.9998 5.99979C12.5521 5.99979 12.9998 6.44744 12.9998 6.99974V11.5855L16.2426 14.8281C16.633 15.2186 16.633 15.8518 16.2426 16.2424C15.852 16.6328 15.2188 16.6328 14.8283 16.2424L11.2927 12.7071ZM11.9998 2C12.5521 2 12.9998 2.44765 12.9998 2.99995C12.9998 3.55225 12.5521 3.9999 11.9998 3.9999C7.58162 3.9999 3.99957 7.58166 3.99957 12.0001C3.99957 16.4185 7.58136 20.0003 11.9998 20.0003C16.4183 20.0003 20.0001 16.4185 20.0001 12.0001C20.0001 11.4478 20.4477 11.0001 21 11.0001C21.5524 11.0001 22 11.4478 22 12.0001C22 17.5231 17.5231 22 12 22C6.47692 22 2 17.5231 2 12.0001C2 6.47705 6.47675 2 11.9998 2ZM15.0533 4.6056C14.5449 4.38981 14.3078 3.80271 14.5236 3.29425C14.7394 2.786 15.3263 2.54875 15.8348 2.76458C16.3432 2.98037 16.5804 3.56729 16.3646 4.07575C16.1488 4.58417 15.5617 4.82139 15.0533 4.6056ZM17.6567 6.34317C17.2663 5.9526 17.2663 5.31943 17.6567 4.92887C18.0473 4.5383 18.6805 4.5383 19.071 4.92887C19.4616 5.31945 19.4616 5.95261 19.071 6.34317C18.6804 6.73357 18.0473 6.73357 17.6567 6.34317ZM19.3876 8.93051C19.1809 8.41841 19.4281 7.83546 19.9403 7.62872C20.4524 7.4218 21.0351 7.66923 21.2421 8.18119C21.449 8.6933 21.2015 9.27607 20.6894 9.48299C20.1775 9.68991 19.5945 9.44247 19.3876 8.93051Z" fill="black"/>
</svg>
