<svg width="24" height="24" viewBox="0 0 24 24" fill="none" xmlns="http://www.w3.org/2000/svg">
<path d="M3.29279 20.707C3.10532 20.5195 3 20.2652 3 20C3 19.7348 3.10532 19.4805 3.29279 19.293L17.5858 5H7.99979C7.73457 5 7.48022 4.89464 7.29268 4.70711C7.10514 4.51957 6.99979 4.26522 6.99979 4C6.99979 3.73478 7.10514 3.48043 7.29268 3.29289C7.48022 3.10536 7.73457 3 7.99979 3H19.9998C20.265 3 20.5194 3.10536 20.7069 3.29289C20.8944 3.48043 20.9998 3.73478 20.9998 4V16C20.9998 16.2652 20.8944 16.5196 20.7069 16.7071C20.5194 16.8946 20.265 17 19.9998 17C19.7346 17 19.4802 16.8946 19.2927 16.7071C19.1051 16.5196 18.9998 16.2652 18.9998 16V6.414L4.70679 20.707C4.51926 20.8945 4.26495 20.9998 3.99979 20.9998C3.73462 20.9998 3.48031 20.8945 3.29279 20.707Z" fill="#111111"/>
</svg>
