<svg width="24" height="24" viewBox="0 0 24 24" fill="none" xmlns="http://www.w3.org/2000/svg">
<path fill-rule="evenodd" clip-rule="evenodd" d="M12.0602 13.543C13.3771 13.543 14.5929 13.085 15.5676 12.3154C16.9461 12.5464 18.1835 13.2139 19.1433 14.1766C19.0839 14.1744 19.0243 14.1733 18.9644 14.1733C16.3266 14.1733 14.1883 16.3117 14.1883 18.9494C14.1883 20.2538 14.7112 21.4361 15.5587 22.298C14.4068 22.4825 13.134 22.5849 11.7958 22.5849C6.61324 22.5849 2.41211 21.0492 2.41211 19.1551C2.41211 15.7071 4.84196 12.8485 8.02396 12.3154C8.99848 13.085 10.2144 13.543 11.5313 13.543H12.0602Z" fill="#99A2AD"/>
<path d="M11.7934 12.3152C14.564 12.3152 16.8173 9.26787 16.8173 6.39689C16.8173 3.52566 14.564 1.18945 11.7934 1.18945C9.02324 1.18945 6.76953 3.52542 6.76953 6.39665C6.76976 9.26787 9.02347 12.3152 11.7934 12.3152Z" fill="#99A2AD"/>
<path fill-rule="evenodd" clip-rule="evenodd" d="M16.3861 16.3721C17.0831 15.6751 18.0108 15.291 18.9967 15.291C19.9823 15.291 20.9099 15.6751 21.6069 16.3721C23.0451 17.8106 23.0439 20.1514 21.6047 21.5908C20.8855 22.31 19.9402 22.6694 18.9964 22.6694C18.0525 22.6694 17.1072 22.31 16.388 21.5908C15.6914 20.894 15.307 19.9664 15.3066 18.9808C15.3063 17.9954 15.6901 17.0682 16.3861 16.3721ZM17.1834 17.1693C17.6831 16.6696 18.3392 16.4196 18.9967 16.4196C19.4732 16.4196 19.9493 16.5523 20.3658 16.816L16.8316 20.3501C16.5734 19.9442 16.4344 19.4736 16.4342 18.9805C16.4339 18.2953 16.6998 17.6529 17.1834 17.1693ZM17.6293 21.1467L21.1628 17.6134C21.7877 18.6029 21.6697 19.9312 20.8074 20.7936C19.9465 21.6545 18.6188 21.7718 17.6293 21.1467Z" fill="#99A2AD"/>
</svg>
