<svg width="24" height="24" viewBox="0 0 24 24" fill="none" xmlns="http://www.w3.org/2000/svg">
<g clip-path="url(#clip0_44323_8318)">
<path fill-rule="evenodd" clip-rule="evenodd" d="M21.4987 11.5914C21.4987 6.32102 17.2452 1.71436 11.6266 1.71436C5.87935 1.71436 1.71484 6.41018 1.71484 11.6212C1.71484 13.2855 2.19955 14.9994 3.05026 16.5647C3.20853 16.8222 3.22831 17.1492 3.1195 17.4563L2.45674 19.6754C2.30836 20.2104 2.76339 20.6066 3.26788 20.4481L5.26605 19.8537C5.81011 19.6754 6.23546 19.9032 6.73995 20.2104C8.18418 21.0623 9.98451 21.4982 11.6068 21.4982C12.4024 21.4982 13.2001 21.3985 13.9782 21.2052C13.8146 20.6697 13.7266 20.1011 13.7266 19.5119C13.7266 16.3156 16.3177 13.7245 19.514 13.7245C20.1107 13.7245 20.6863 13.8148 21.228 13.9825C21.4041 13.2321 21.4987 12.4338 21.4987 11.5914ZM14.881 11.6311C14.881 10.9277 15.4449 10.363 16.1472 10.363C16.8495 10.363 17.4134 10.9277 17.4134 11.6311C17.4134 12.3245 16.8495 12.8991 16.1472 12.8991C15.4449 12.8991 14.881 12.3245 14.881 11.6311ZM10.3208 11.6212C10.3208 10.9277 10.8946 10.3531 11.587 10.363C12.2893 10.363 12.8532 10.9277 12.8532 11.6311C12.8532 12.3245 12.2893 12.8991 11.587 12.8991C10.8847 12.8892 10.3208 12.3245 10.3208 11.6212ZM5.76065 11.6311C5.76065 10.9277 6.32449 10.363 7.02682 10.363C7.72915 10.363 8.29299 10.9277 8.29299 11.6311C8.29299 12.3245 7.72915 12.8892 7.02682 12.8991C6.33438 12.8991 5.76065 12.3245 5.76065 11.6311Z" fill="#99A2AD"/>
<path fill-rule="evenodd" clip-rule="evenodd" d="M16.2886 16.2895C17.142 15.4361 18.2779 14.9658 19.485 14.9658C20.6918 14.9658 21.8277 15.4362 22.6811 16.2895C24.442 18.0509 24.4406 20.9171 22.6784 22.6795C21.7978 23.5601 20.6403 24.0001 19.4846 24.0001C18.3289 24.0001 17.1715 23.5601 16.2909 22.6795C15.438 21.8264 14.9672 20.6905 14.9668 19.4838C14.9664 18.2772 15.4363 17.1418 16.2886 16.2895ZM17.2647 17.2657C17.8766 16.6539 18.6799 16.3477 19.485 16.3477C20.0685 16.3477 20.6515 16.5102 21.1614 16.8331L16.834 21.1603C16.5178 20.6633 16.3476 20.0872 16.3474 19.4833C16.347 18.6443 16.6727 17.8578 17.2647 17.2657ZM17.8108 22.1358L22.1373 17.8094C22.9025 19.021 22.758 20.6474 21.7022 21.7034C20.648 22.7576 19.0224 22.9011 17.8108 22.1358Z" fill="#99A2AD"/>
</g>
<defs>
<clipPath id="clip0_44323_8318">
<rect width="24" height="24" fill="white"/>
</clipPath>
</defs>
</svg>
