<svg width="24" height="24" viewBox="0 0 24 24" fill="none" xmlns="http://www.w3.org/2000/svg">
<path d="M17.6861 16.765L13.4084 12.0173L17.581 7.34218C17.7855 7.11004 17.8976 6.79541 17.8919 6.46931C17.8861 6.14339 17.7631 5.83372 17.5508 5.61094L12.4227 0.308358C12.2161 0.10109 11.9462 -0.00933635 11.6689 0.000619159C11.3917 0.0103797 11.1285 0.13956 10.9339 0.361183C10.7394 0.58261 10.6287 0.87983 10.6246 1.19045V8.92655L7.82558 5.81986V5.82005C7.55364 5.51824 7.15871 5.40169 6.78943 5.51461C6.42012 5.62752 6.13262 5.95249 6.03528 6.36719C5.93791 6.78192 6.04536 7.22346 6.31712 7.52526L10.3707 12.025L6.30497 16.5809C6.04003 16.8853 5.93874 17.324 6.03849 17.7343C6.13825 18.1444 6.42419 18.465 6.79041 18.5768C7.15647 18.6887 7.54814 18.5752 7.81991 18.2786L10.6244 15.1365V22.7996C10.6245 23.1094 10.7315 23.4072 10.9228 23.6308C11.1143 23.8543 11.3755 23.9862 11.6518 23.999C11.928 24.0118 12.1979 23.9044 12.4053 23.6993L17.6414 18.5177C17.8617 18.2965 17.9912 17.9836 17.9996 17.6521C18.0081 17.3208 17.8947 17 17.6859 16.765L17.6861 16.765ZM12.7675 3.93213L15.2771 6.52766L12.7675 9.3398V3.93213ZM12.7675 20.1378V14.6853L15.3642 17.5675L12.7675 20.1378Z" fill="#161318"/>
</svg>
