<svg width="68" height="69" viewBox="0 0 68 69" fill="none" xmlns="http://www.w3.org/2000/svg">
<g clip-path="url(#clip0_44323_8371)">
<path d="M52.2222 49.1761C52.2222 49.5516 52.4326 49.8955 52.7669 50.0664L55.804 51.6195C56.4694 51.9597 57.2593 51.4765 57.2593 50.7291V11.1515C57.2593 8.31818 54.9926 6 52.2222 6H27.0119C24.2415 6 22 8.31818 22 11.1515H47.1852C49.9556 11.1515 52.2222 13.4697 52.2222 16.303V49.1761Z" fill="white" stroke="#BEBEBE" stroke-width="1.4"/>
<path d="M42.5543 15.9697H17.3691C14.5987 15.9697 12.332 18.2879 12.332 21.1212V60.8032C12.332 61.5247 13.0727 62.0087 13.7335 61.7191L29.5602 54.782C29.8161 54.6699 30.1072 54.6699 30.3631 54.782L46.1899 61.7191C46.8506 62.0087 47.5913 61.5247 47.5913 60.8032V21.1212C47.5913 18.2879 45.3246 15.9697 42.5543 15.9697Z" fill="#EAEAEA" stroke="#BEBEBE" stroke-width="1.4"/>
</g>
<defs>
<clipPath id="clip0_44323_8371">
<rect width="68" height="68" fill="white" transform="translate(0 0.5)"/>
</clipPath>
</defs>
</svg>
