<svg width="24" height="24" viewBox="0 0 24 24" fill="none" xmlns="http://www.w3.org/2000/svg">
<path fill-rule="evenodd" clip-rule="evenodd" d="M14.8839 11.23C15.3214 11.23 15.6674 11.57 15.6674 12C15.6674 12.42 15.3214 12.77 14.8839 12.77H8.7793V17.55C8.7793 20 10.804 22 13.3069 22H18.2619C20.7546 22 22.7793 20.01 22.7793 17.56V6.45C22.7793 3.99 20.7444 2 18.2517 2H13.2866C10.804 2 8.7793 3.99 8.7793 6.44V11.23H14.8839ZM5.1491 8.5402L2.2291 11.4502C2.0791 11.6002 1.9991 11.7902 1.9991 12.0002C1.9991 12.2002 2.0791 12.4002 2.2291 12.5402L5.1491 15.4502C5.2991 15.6002 5.4991 15.6802 5.6891 15.6802C5.8891 15.6802 6.0891 15.6002 6.2391 15.4502C6.5391 15.1502 6.5391 14.6602 6.2391 14.3602L4.6391 12.7702H8.7791V11.2302H4.6391L6.2391 9.6402C6.5391 9.3402 6.5391 8.8502 6.2391 8.5502C5.9391 8.2402 5.4491 8.2402 5.1491 8.5402Z" fill="#7134F3"/>
</svg>
