<svg width="25" height="24" viewBox="0 0 25 24" fill="none" xmlns="http://www.w3.org/2000/svg">
<path fill-rule="evenodd" clip-rule="evenodd" d="M12.147 1C5.756 1 1.125 6.22183 1.125 12.0165C1.125 13.8673 1.664 15.7732 2.61 17.5138C2.786 17.8002 2.808 18.1637 2.687 18.5053L1.95 20.973C1.785 21.5679 2.291 22.0085 2.852 21.8322L5.074 21.1713C5.679 20.973 6.152 21.2263 6.713 21.5679C8.319 22.5153 10.321 23 12.125 23C17.581 23 23.125 18.7807 23.125 11.9835C23.125 6.12268 18.395 1 12.147 1ZM7.125 10C7.125 9.44771 7.57272 9 8.125 9H16.125C16.6773 9 17.125 9.44771 17.125 10C17.125 10.5523 16.6773 11 16.125 11H8.125C7.57272 11 7.125 10.5523 7.125 10ZM8.125 13C7.57272 13 7.125 13.4477 7.125 14C7.125 14.5523 7.57272 15 8.125 15H13.125C13.6773 15 14.125 14.5523 14.125 14C14.125 13.4477 13.6773 13 13.125 13H8.125Z" fill="#444245"/>
</svg>
