<svg width="68" height="68" viewBox="0 0 68 68" fill="none" xmlns="http://www.w3.org/2000/svg">
<path d="M4.85651 42.9463C5.00699 42.4967 4.94778 42.005 4.71124 41.5941C3.04832 38.7056 1.96935 35.5204 1.53768 32.2172C1.07373 28.667 1.36786 25.0598 2.40097 21.6296C3.43408 18.1995 5.18307 15.0231 7.53442 12.3067C9.88577 9.59022 12.7869 7.39445 16.0495 5.86188C19.3122 4.32931 22.8633 3.49419 26.4725 3.41075C30.0817 3.3273 33.6683 3.99739 36.9994 5.37751C40.3305 6.75763 43.3317 8.81693 45.8082 11.4218C47.5796 13.2849 49.0541 15.3974 50.1869 17.6857C50.7595 18.8425 49.6624 20.0636 48.3832 19.8922C44.8591 19.4202 41.2575 19.7703 37.8705 20.9331C33.517 22.4277 29.7221 25.1949 26.9858 28.8702C24.2496 32.5455 22.7002 36.9565 22.5418 41.5222C22.4189 45.0659 23.1384 48.5738 24.624 51.7682C25.1688 52.9397 24.3306 54.3545 23.0541 54.1553C19.9793 53.6756 17.0117 52.6429 14.2999 51.1017C13.8932 50.8706 13.4085 50.8125 12.9641 50.9588L2.42375 54.4278C2.27629 54.4763 2.11811 54.4832 1.96691 54.4477C1.81572 54.4122 1.67745 54.3357 1.56759 54.2268C1.45772 54.1178 1.38058 53.9807 1.34479 53.8308C1.309 53.6809 1.31597 53.524 1.36493 53.3778L4.85651 42.9463Z" fill="#EAEAEA"/>
<path fill-rule="evenodd" clip-rule="evenodd" d="M2.92587 32.0358C3.33367 35.1564 4.35304 38.1658 5.92455 40.8956C6.34977 41.6342 6.46862 42.5407 6.18412 43.3906L3.05241 52.747L12.5264 49.6289C13.3665 49.3525 14.2602 49.4688 14.9917 49.8846C17.5555 51.3417 20.3618 52.3183 23.2699 52.7721C23.2845 52.7744 23.2931 52.7745 23.2975 52.7742C23.3029 52.7706 23.3194 52.7581 23.3393 52.7267C23.3964 52.6365 23.4174 52.4936 23.3546 52.3586C21.7766 48.9654 21.012 45.2388 21.1426 41.4736C21.3109 36.6226 22.9572 31.9371 25.8629 28.0342C28.7685 24.1314 32.7968 21.1947 37.4159 19.6089C41.0096 18.3752 44.8305 18.0038 48.569 18.5046C48.7156 18.5242 48.8435 18.4622 48.9108 18.3826C48.933 18.3563 48.9402 18.338 48.9422 18.3315C48.9411 18.3272 48.9384 18.3193 48.9322 18.3068C47.8618 16.1444 46.4681 14.1477 44.7936 12.3864C42.4524 9.92388 39.6144 7.97635 36.4635 6.67089C33.3126 5.36543 29.9196 4.73142 26.5049 4.81037C23.0902 4.88932 19.7307 5.67944 16.6448 7.12904C13.5588 8.57862 10.8157 10.6551 8.59294 13.2229C6.37025 15.7907 4.71757 18.7926 3.74149 22.0334C2.76542 25.2741 2.48759 28.6819 2.92587 32.0358ZM48.9429 18.3356C48.9428 18.3357 48.9425 18.3347 48.9426 18.333C48.9429 18.3348 48.943 18.3356 48.9429 18.3356ZM2.6925 53.8223L2.69253 53.8222ZM1.36493 53.3778C1.31597 53.524 1.309 53.6809 1.34479 53.8308C1.38058 53.9807 1.45772 54.1178 1.56759 54.2268C1.67745 54.3357 1.81572 54.4122 1.96691 54.4477C2.11811 54.4832 2.27629 54.4763 2.42375 54.4278L12.9641 50.9588C13.4085 50.8125 13.8932 50.8706 14.2999 51.1017C17.0117 52.6429 19.9793 53.6756 23.0541 54.1553C24.3306 54.3545 25.1688 52.9397 24.624 51.7682C23.1384 48.5738 22.4189 45.0659 22.5418 41.5222C22.7002 36.9565 24.2496 32.5455 26.9858 28.8702C29.7221 25.1949 33.517 22.4277 37.8705 20.9331C41.2575 19.7703 44.8591 19.4202 48.3832 19.8922C49.6624 20.0636 50.7595 18.8425 50.1869 17.6857C49.0541 15.3974 47.5796 13.2849 45.8082 11.4218C43.3317 8.81693 40.3305 6.75763 36.9994 5.37751C33.6683 3.99739 30.0817 3.3273 26.4725 3.41075C22.8633 3.49419 19.3122 4.32931 16.0495 5.86188C12.7869 7.39445 9.88577 9.59022 7.53442 12.3067C5.18307 15.0231 3.43408 18.1995 2.40097 21.6296C1.36786 25.0598 1.07373 28.667 1.53768 32.2172C1.96935 35.5204 3.04832 38.7056 4.71124 41.5941C4.94778 42.005 5.00699 42.4967 4.85651 42.9463L1.36493 53.3778Z" fill="#BEBEBE"/>
<path fill-rule="evenodd" clip-rule="evenodd" d="M50.5212 23.4917C46.2879 22.3884 41.8074 22.716 37.7808 24.4231C33.7542 26.1303 30.4092 29.1205 28.2688 32.9255C26.1285 36.7304 25.3135 41.1354 25.9511 45.4513C26.5888 49.7673 28.6432 53.7509 31.7933 56.7786C34.9433 59.8064 39.0113 61.7073 43.3607 62.1836C47.5616 62.6437 51.7958 61.7495 55.4445 59.6387C55.8643 59.3959 56.3757 59.3316 56.8521 59.4893L65.278 62.2784L62.4837 53.8816C62.3242 53.4025 62.3896 52.8878 62.6351 52.4665C64.384 49.4652 65.3048 46.0524 65.2996 42.576L65.2996 42.575C65.2994 38.2125 63.849 33.973 61.175 30.5199C58.5011 27.0668 54.7544 24.595 50.5212 23.4917ZM65.3422 62.2997L65.3425 62.2998L65.3425 62.2998C65.3424 62.2997 65.3423 62.2997 65.3422 62.2997ZM37.2343 23.1342C41.5453 21.3064 46.3422 20.9558 50.8743 22.1369C55.4064 23.3181 59.4183 25.9647 62.282 29.6628C65.1454 33.3606 66.6991 37.9012 66.6996 42.5739C66.7052 46.2991 65.7185 49.9558 63.8447 53.1713C63.7929 53.2602 63.785 53.3583 63.8121 53.4396L66.6287 61.9034C66.6287 61.9034 66.6287 61.9034 66.6287 61.9034C66.7088 62.1439 66.7202 62.4019 66.6617 62.6485C66.6031 62.8951 66.477 63.1203 66.2977 63.2992C66.1184 63.478 65.893 63.6034 65.6466 63.6616C65.4003 63.7197 65.1427 63.7084 64.9025 63.6288C64.9025 63.6288 64.9025 63.6288 64.9024 63.6288L56.4122 60.8183C56.3313 60.7916 56.234 60.7994 56.1456 60.8505C52.2388 63.1106 47.7057 64.0678 43.2082 63.5753C38.552 63.0654 34.1964 61.0302 30.8231 57.788C27.4498 54.5456 25.2492 50.2791 24.5662 45.656C23.8831 41.0328 24.7562 36.3143 27.0487 32.2391C29.3411 28.1638 32.9233 24.962 37.2343 23.1342ZM34.9733 39.0357C35.6744 38.8966 36.4012 38.968 37.0617 39.2409C37.7223 39.5138 38.2872 39.976 38.6848 40.5695C39.0824 41.1629 39.2947 41.8609 39.2947 42.575C39.2947 43.5326 38.9133 44.4507 38.2349 45.1272C37.5566 45.8038 36.637 46.1835 35.6785 46.1835C34.9636 46.1835 34.2647 45.9721 33.6701 45.5758C33.0754 45.1795 32.6116 44.6161 32.3377 43.9565C32.0638 43.2969 31.9921 42.571 32.1317 41.8706C32.2714 41.1703 32.6161 40.5272 33.122 40.0227C33.6279 39.5182 34.2722 39.1748 34.9733 39.0357ZM36.5272 40.5348C36.122 40.3674 35.676 40.3236 35.2457 40.409C34.8155 40.4943 34.4205 40.705 34.1107 41.014C33.8008 41.323 33.5901 41.7164 33.5047 42.1445C33.4193 42.5725 33.4631 43.0162 33.6306 43.4195C33.7982 43.8229 34.082 44.1679 34.4464 44.4108C34.811 44.6537 35.2397 44.7835 35.6785 44.7835C36.2669 44.7835 36.8308 44.5504 37.2463 44.136C37.6617 43.7216 37.8947 43.1601 37.8947 42.575C37.8947 42.1386 37.765 41.7118 37.5217 41.3487C37.2784 40.9855 36.9324 40.7022 36.5272 40.5348ZM44.8157 39.0357C45.5168 38.8966 46.2436 38.968 46.9042 39.2409C47.5647 39.5138 48.1296 39.976 48.5272 40.5695C48.9248 41.1629 49.1372 41.8609 49.1372 42.575C49.1372 43.5326 48.7557 44.4507 48.0773 45.1272C47.399 45.8038 46.4794 46.1835 45.5209 46.1835C44.8061 46.1835 44.1071 45.9721 43.5125 45.5758C42.9178 45.1795 42.4541 44.6161 42.1801 43.9565C41.9062 43.2969 41.8345 42.571 41.9742 41.8706C42.1138 41.1703 42.4586 40.5272 42.9644 40.0227C43.4703 39.5182 44.1146 39.1748 44.8157 39.0357ZM46.3696 40.5348C45.9644 40.3674 45.5184 40.3236 45.0882 40.409C44.6579 40.4943 44.2629 40.705 43.9531 41.014C43.6433 41.323 43.4325 41.7164 43.3471 42.1445C43.2618 42.5725 43.3056 43.0162 43.4731 43.4195C43.6406 43.8229 43.9244 44.1679 44.2889 44.4108C44.6534 44.6537 45.0821 44.7835 45.5209 44.7835C46.1093 44.7835 46.6732 44.5504 47.0887 44.136C47.5041 43.7216 47.7372 43.1601 47.7372 42.575C47.7372 42.1386 47.6074 41.7118 47.3641 41.3487C47.1208 40.9855 46.7748 40.7022 46.3696 40.5348ZM52.8069 40.0227C53.4852 39.3462 54.4048 38.9665 55.3633 38.9665C56.0781 38.9665 56.777 39.1779 57.3717 39.5741C57.9663 39.9704 58.4301 40.5339 58.704 41.1934C58.978 41.853 59.0497 42.579 58.91 43.2793C58.7703 43.9797 58.4256 44.6227 57.9197 45.1272C57.4139 45.6318 56.7696 45.9751 56.0684 46.1142C55.3673 46.2533 54.6406 46.1819 53.98 45.9091C53.3194 45.6362 52.7545 45.1739 52.357 44.5805C51.9594 43.987 51.747 43.2891 51.747 42.575C51.747 41.6173 52.1285 40.6993 52.8069 40.0227ZM55.3633 40.3665C54.7749 40.3665 54.211 40.5996 53.7955 41.014C53.3801 41.4283 53.147 41.9898 53.147 42.575C53.147 43.0114 53.2768 43.4381 53.5201 43.8012C53.7634 44.1644 54.1094 44.4477 54.5146 44.6151C54.9198 44.7825 55.3657 44.8263 55.796 44.741C56.2263 44.6556 56.6213 44.445 56.9311 44.136C57.2409 43.827 57.4517 43.4335 57.5371 43.0055C57.6224 42.5774 57.5786 42.1337 57.4111 41.7304C57.2436 41.3271 56.9598 40.982 56.5953 40.7391C56.2308 40.4962 55.8021 40.3665 55.3633 40.3665Z" fill="#BEBEBE"/>
</svg>
