<svg width="24" height="24" viewBox="0 0 24 24" fill="none" xmlns="http://www.w3.org/2000/svg">
<path d="M13.3063 11.956L19.7863 5.47596C19.9319 5.30592 20.008 5.08718 19.9993 4.86347C19.9907 4.63976 19.898 4.42755 19.7397 4.26924C19.5813 4.11093 19.3691 4.01819 19.1454 4.00955C18.9217 4.00091 18.703 4.077 18.5329 4.22263L12.0529 10.7026L5.57293 4.21374C5.40288 4.06812 5.18415 3.99202 4.96044 4.00066C4.73672 4.0093 4.52451 4.10204 4.36621 4.26035C4.2079 4.41866 4.11516 4.63087 4.10652 4.85458C4.09788 5.07829 4.17397 5.29703 4.31959 5.46707L10.7996 11.956L4.31071 18.436C4.21766 18.5156 4.14208 18.6137 4.08873 18.724C4.03537 18.8343 4.00539 18.9544 4.00066 19.0768C3.99593 19.1992 4.01656 19.3213 4.06125 19.4354C4.10594 19.5494 4.17372 19.653 4.26035 19.7397C4.34698 19.8263 4.45057 19.8941 4.56464 19.9387C4.67871 19.9834 4.80078 20.0041 4.9232 19.9993C5.04561 19.9946 5.16573 19.9646 5.27601 19.9113C5.38629 19.8579 5.48435 19.7823 5.56404 19.6893L12.0529 13.2093L18.5329 19.6893C18.703 19.8349 18.9217 19.911 19.1454 19.9024C19.3691 19.8937 19.5813 19.801 19.7397 19.6427C19.898 19.4844 19.9907 19.2722 19.9993 19.0485C20.008 18.8247 19.9319 18.606 19.7863 18.436L13.3063 11.956Z" fill="#99969B"/>
</svg>
