<svg width="24" height="24" viewBox="0 0 24 24" fill="none" xmlns="http://www.w3.org/2000/svg">
<path d="M6.3424 6.34315C5.95188 6.73367 5.95188 7.36684 6.3424 7.75736L10.585 12L6.3424 16.2426C5.95188 16.6332 5.95188 17.2663 6.3424 17.6569C6.73293 18.0474 7.36609 18.0474 7.75661 17.6569L11.9993 13.4142L16.2419 17.6569C16.6324 18.0474 17.2656 18.0474 17.6561 17.6569C18.0466 17.2663 18.0466 16.6332 17.6561 16.2426L13.4135 12L17.6561 7.75736C18.0466 7.36683 18.0466 6.73367 17.6561 6.34315C17.2656 5.95262 16.6324 5.95262 16.2419 6.34315L11.9993 10.5858L7.75661 6.34315C7.36609 5.95262 6.73293 5.95262 6.3424 6.34315Z" fill="black"/>
</svg>
