<svg width="24" height="24" viewBox="0 0 24 24" fill="none" xmlns="http://www.w3.org/2000/svg">
<path fill-rule="evenodd" clip-rule="evenodd" d="M22.8499 5.29336V14.9982C22.8499 16.2567 21.826 17.2915 20.5809 17.2915H17.6201H16.7623H15.8491H8.23965H7.2435H6.60707H3.61862C2.37343 17.2915 1.34961 16.2567 1.34961 14.9982V5.29336C1.34961 4.03481 2.37343 3 3.61862 3H20.5809C21.826 3 22.8499 4.03481 22.8499 5.29336ZM20.8852 14.8863V5.29336C20.8852 5.01368 20.6915 4.81791 20.4148 4.81791H3.64629C3.36958 4.81791 3.17589 5.04165 3.17589 5.29336V14.8863C3.17589 15.166 3.39725 15.3618 3.64629 15.3618H4.86381C5.02983 12.5091 6.93912 10.803 8.32267 10.775C8.73773 10.775 9.26347 10.9429 9.70621 11.2505C9.2358 11.6141 8.82074 12.0616 8.46102 12.6489C7.96294 13.46 7.57555 14.4109 7.35419 15.3618H8.35034C8.71006 13.7676 9.56785 12.565 10.5087 11.9497C10.7295 11.7761 10.9721 11.6684 11.1979 11.5683L11.2834 11.5302C11.5048 11.4463 11.7815 11.3903 12.0306 11.3903C12.3073 11.3903 12.584 11.4742 12.916 11.5861L12.9928 11.6204C13.2208 11.7216 13.4643 11.8298 13.6631 12.0056C14.604 12.6489 15.4064 13.7956 15.7385 15.3338H16.6239C16.4302 14.3549 16.0428 13.404 15.5171 12.6209C15.1574 12.0895 14.77 11.642 14.3549 11.3064C14.853 10.9708 15.3787 10.775 15.8215 10.775C17.205 10.775 19.142 12.5091 19.308 15.3338H20.4148C20.6915 15.3897 20.8852 15.166 20.8852 14.8863ZM17.7031 8.0901C17.7031 8.50962 17.5647 8.84523 17.3434 9.18085C17.2977 9.22704 17.2687 9.26475 17.2427 9.29866C17.2215 9.32634 17.2022 9.35148 17.1773 9.37662C16.8453 9.7402 16.3749 9.93598 15.8491 9.93598C15.4341 9.93598 15.0744 9.82411 14.77 9.5724C14.9083 9.18085 14.9913 8.81727 14.9913 8.36978C14.9913 7.81043 14.8253 7.25107 14.5486 6.74765C14.8807 6.41204 15.3234 6.18829 15.8491 6.18829C16.873 6.18829 17.7031 7.05529 17.7031 8.0901ZM16.1536 20.2001V19.2492C16.1536 18.7178 15.7939 18.2703 15.3511 18.0466C15.2128 17.9907 15.0467 17.9627 14.8807 17.9627H9.34654C9.15285 17.9627 8.95915 17.9907 8.79313 18.0746C8.37806 18.2983 8.07368 18.7458 8.07368 19.2492V20.2001H16.1536ZM12.0306 6.27228C13.1374 6.27228 14.0505 7.16725 14.0505 8.31393C14.0505 9.46061 13.1374 10.3556 12.0306 10.3556C10.9237 10.3556 10.0106 9.46061 10.0106 8.31393C10.0106 7.22318 10.8961 6.30025 12.0306 6.27228ZM9.04205 8.39778C9.04205 7.75452 9.23575 7.16719 9.5678 6.69174C9.20808 6.41206 8.82069 6.24426 8.35028 6.21629C7.32646 6.21629 6.49634 7.05532 6.49634 8.09013C6.49634 8.50965 6.63469 8.87323 6.85606 9.18087C6.87801 9.21416 6.90432 9.24305 6.9298 9.27102C6.96855 9.31356 7.00539 9.354 7.02208 9.40462C7.35413 9.74023 7.82454 9.96397 8.35028 9.96397C8.68233 9.96397 9.04205 9.88007 9.29109 9.68429C9.15274 9.26478 9.04205 8.84526 9.04205 8.39778Z" fill="#444245"/>
</svg>
