<svg width="24" height="24" viewBox="0 0 24 24" fill="none" xmlns="http://www.w3.org/2000/svg">
<path fill-rule="evenodd" clip-rule="evenodd" d="M22.8504 5.29336V14.9982C22.8504 16.2567 21.8265 17.2915 20.5813 17.2915H17.6206H16.7628H15.8496H8.24014H7.24399H6.60756H3.61911C2.37392 17.2915 1.3501 16.2567 1.3501 14.9982V5.29336C1.3501 4.03481 2.37392 3 3.61911 3H20.5813C21.8265 3 22.8504 4.03481 22.8504 5.29336ZM20.8857 14.8863V5.29336C20.8857 5.01368 20.692 4.81791 20.4153 4.81791H3.64678C3.37007 4.81791 3.17637 5.04165 3.17637 5.29336V14.8863C3.17637 15.166 3.39774 15.3618 3.64678 15.3618H4.8643C5.03032 12.5091 6.93961 10.803 8.32315 10.775C8.73822 10.775 9.26396 10.9429 9.7067 11.2505C9.23629 11.6141 8.82123 12.0616 8.46151 12.6489C7.96343 13.46 7.57604 14.4109 7.35467 15.3618H8.35083C8.71055 13.7676 9.56834 12.565 10.5092 11.9497C10.73 11.7761 10.9726 11.6684 11.1984 11.5683L11.2839 11.5302C11.5053 11.4463 11.782 11.3903 12.031 11.3903C12.3078 11.3903 12.5845 11.4742 12.9165 11.5861L12.9933 11.6204C13.2213 11.7216 13.4648 11.8298 13.6636 12.0056C14.6044 12.6489 15.4069 13.7956 15.7389 15.3338H16.6244C16.4307 14.3549 16.0433 13.404 15.5176 12.6209C15.1579 12.0895 14.7705 11.642 14.3554 11.3064C14.8535 10.9708 15.3792 10.775 15.822 10.775C17.2055 10.775 19.1425 12.5091 19.3085 15.3338H20.4153C20.692 15.3897 20.8857 15.166 20.8857 14.8863ZM17.7036 8.0901C17.7036 8.50962 17.5652 8.84523 17.3439 9.18085C17.2982 9.22704 17.2692 9.26475 17.2432 9.29866C17.222 9.32634 17.2027 9.35148 17.1778 9.37662C16.8458 9.7402 16.3754 9.93598 15.8496 9.93598C15.4346 9.93598 15.0748 9.82411 14.7705 9.5724C14.9088 9.18085 14.9918 8.81727 14.9918 8.36978C14.9918 7.81043 14.8258 7.25107 14.5491 6.74765C14.8811 6.41204 15.3239 6.18829 15.8496 6.18829C16.8734 6.18829 17.7036 7.05529 17.7036 8.0901ZM16.1541 20.2001V19.2492C16.1541 18.7178 15.7943 18.2703 15.3516 18.0466C15.2133 17.9907 15.0472 17.9627 14.8812 17.9627H9.34703C9.15334 17.9627 8.95964 17.9907 8.79361 18.0746C8.37855 18.2983 8.07417 18.7458 8.07417 19.2492V20.2001H16.1541ZM12.0311 6.27228C13.1379 6.27228 14.051 7.16725 14.051 8.31393C14.051 9.46061 13.1379 10.3556 12.0311 10.3556C10.9242 10.3556 10.0111 9.46061 10.0111 8.31393C10.0111 7.22318 10.8966 6.30025 12.0311 6.27228ZM9.04254 8.39778C9.04254 7.75452 9.23624 7.16719 9.56829 6.69174C9.20857 6.41206 8.82118 6.24426 8.35077 6.21629C7.32695 6.21629 6.49682 7.05532 6.49682 8.09013C6.49682 8.50965 6.63518 8.87323 6.85654 9.18087C6.8785 9.21416 6.90481 9.24305 6.93029 9.27102C6.96904 9.31356 7.00588 9.354 7.02257 9.40462C7.35462 9.74023 7.82503 9.96397 8.35077 9.96397C8.68282 9.96397 9.04254 9.88007 9.29158 9.68429C9.15323 9.26478 9.04254 8.84526 9.04254 8.39778Z" fill="#444245"/>
</svg>
