<svg width="24" height="24" viewBox="0 0 24 24" fill="none" xmlns="http://www.w3.org/2000/svg">
<path d="M19.2308 0H7.35891C5.28202 0 3.58966 1.67096 3.58966 3.72158V4.27855H1.92308C1.4103 4.27855 1 4.68366 1 5.18995V6.20253C1 6.70883 1.4103 7.11394 1.92308 7.11394H3.58966V10.5823H1.92308C1.4103 10.5823 1 10.9874 1 11.4937V12.5063C1 13.0126 1.4103 13.4177 1.92308 13.4177H3.58966V16.8861H1.92308C1.4103 16.8861 1 17.2912 1 17.7975V18.81C1 19.3163 1.4103 19.7215 1.92308 19.7215H3.58966V20.2784C3.58966 22.329 5.28202 24 7.35891 24H19.2308C21.3076 24 23 22.329 23 20.2784L22.9998 3.72167C22.9998 1.67105 21.3076 9.04107e-05 19.2308 9.04107e-05L19.2308 0ZM21.1538 20.3294C21.1538 21.3675 20.2821 22.2282 19.2308 22.2282H7.35891C6.30758 22.2282 5.43582 21.3675 5.43582 20.3294V3.72158C5.43582 2.68354 6.30758 1.82281 7.35891 1.82281H19.2308C20.2821 1.82281 21.1538 2.68354 21.1538 3.72158V20.3294Z" fill="#444245"/>
<path d="M16.2307 12.1016C15.4359 12.7598 14.4101 13.1649 13.3076 13.1649C12.2051 13.1649 11.1794 12.7598 10.3845 12.1016C8.99997 13.1649 8.30762 15.0129 8.30762 17.1396C8.30762 18.7092 18.3333 18.7092 18.3333 17.1396C18.3077 15.0129 17.6153 13.1648 16.2306 12.1016H16.2307Z" fill="#444245"/>
<path d="M16.3076 8.68277C16.3076 10.3188 14.9646 11.645 13.3076 11.645C11.6508 11.645 10.3076 10.3187 10.3076 8.68277C10.3076 7.04694 11.6508 5.7207 13.3076 5.7207C14.9646 5.7207 16.3076 7.04694 16.3076 8.68277Z" fill="#444245"/>
</svg>
