<svg width="24" height="24" viewBox="0 0 24 24" fill="none" xmlns="http://www.w3.org/2000/svg">
<path d="M20.5714 16.2857H19.1429V8.19055C19.1429 7.30646 18.7916 6.45854 18.1666 5.83339C17.5415 5.20841 16.6935 4.85714 15.8095 4.85714H7.7143V3.42856C7.7143 2.91819 7.44198 2.44655 7.00001 2.19133C6.55805 1.93622 6.01339 1.93622 5.57143 2.19133C5.12947 2.44659 4.85714 2.91823 4.85714 3.42856V4.85714H3.42856C2.91819 4.85714 2.44655 5.12946 2.19133 5.57143C1.93622 6.01339 1.93622 6.55805 2.19133 7.00001C2.44659 7.44197 2.91823 7.7143 3.42856 7.7143H4.85714V15.8095C4.85714 16.6935 5.20839 17.5415 5.83339 18.1666C6.45854 18.7916 7.30646 19.1429 8.19055 19.1429H16.2857V20.5714C16.2857 21.0818 16.558 21.5534 17 21.8087C17.442 22.0638 17.9866 22.0638 18.4286 21.8087C18.8705 21.5534 19.1429 21.0818 19.1429 20.5714V19.1429H20.5714C21.0818 19.1429 21.5534 18.8705 21.8087 18.4286C22.0638 17.9866 22.0638 17.442 21.8087 17C21.5534 16.558 21.0818 16.2857 20.5714 16.2857ZM8.19055 16.2857C7.92747 16.2857 7.7143 16.0725 7.7143 15.8095V7.7143H15.8095C15.9357 7.7143 16.0569 7.76452 16.1462 7.85381C16.2355 7.9431 16.2857 8.06427 16.2857 8.19055V16.2857H8.19055Z" fill="#161318"/>
</svg>
