<svg width="24" height="24" viewBox="0 0 24 24" fill="none" xmlns="http://www.w3.org/2000/svg">
<path d="M12.0192 1.71436C17.6378 1.71436 21.8913 6.32102 21.8913 11.5914C21.8913 17.7039 16.9058 21.4982 11.9994 21.4982C10.3771 21.4982 8.57675 21.0623 7.13253 20.2104C6.62804 19.9033 6.20269 19.6754 5.65863 19.8537L3.66046 20.4481C3.15597 20.6066 2.70094 20.2104 2.84932 19.6754L3.51208 17.4563C3.62089 17.1492 3.60111 16.8222 3.44283 16.5647C2.59213 14.9994 2.10742 13.2855 2.10742 11.6212C2.10742 6.41018 6.27193 1.71436 12.0192 1.71436ZM16.5398 10.363C15.8374 10.363 15.2736 10.9277 15.2736 11.6311C15.2736 12.3245 15.8374 12.8991 16.5398 12.8991C17.2421 12.8991 17.8059 12.3245 17.8059 11.6311C17.8059 10.9277 17.2421 10.363 16.5398 10.363ZM11.9796 10.363C11.2871 10.3531 10.7134 10.9277 10.7134 11.6212C10.7134 12.3245 11.2773 12.8892 11.9796 12.8991C12.6819 12.8991 13.2458 12.3245 13.2458 11.6311C13.2458 10.9277 12.6819 10.363 11.9796 10.363ZM7.4194 10.363C6.71707 10.363 6.15323 10.9277 6.15323 11.6311C6.15323 12.3245 6.72696 12.8991 7.4194 12.8991C8.12172 12.8892 8.68557 12.3245 8.68557 11.6311C8.68557 10.9277 8.12172 10.363 7.4194 10.363Z" fill="#99A2AD"/>
</svg>
