<svg width="24" height="24" viewBox="0 0 24 24" fill="none" xmlns="http://www.w3.org/2000/svg">
<path d="M15.5676 12.3154C14.5929 13.085 13.3771 13.543 12.0602 13.543H11.5313C10.2144 13.543 8.99848 13.085 8.02396 12.3154C4.84196 12.8485 2.41211 15.7071 2.41211 19.1551C2.41211 21.0492 6.61324 22.5849 11.7958 22.5849C16.9783 22.5849 21.1795 21.0492 21.1795 19.1551C21.1795 15.7071 18.7494 12.8485 15.5676 12.3154Z" fill="#99A2AD"/>
<path d="M11.7934 12.3152C14.564 12.3152 16.8173 9.26787 16.8173 6.39689C16.8173 3.52566 14.564 1.18945 11.7934 1.18945C9.02324 1.18945 6.76953 3.52542 6.76953 6.39665C6.76976 9.26787 9.02347 12.3152 11.7934 12.3152Z" fill="#99A2AD"/>
</svg>
