<svg width="24" height="24" viewBox="0 0 24 24" fill="none" xmlns="http://www.w3.org/2000/svg">
<path d="M11.4727 12.1953C10.6671 12.8313 9.66228 13.2099 8.57385 13.2099H8.13673C7.04829 13.2099 6.04329 12.8313 5.23785 12.1953C2.6079 12.6359 0.599609 14.9986 0.599609 17.8483C0.599609 19.4139 4.07188 20.6831 8.35529 20.6831C12.6387 20.6831 16.111 19.4139 16.111 17.8483C16.111 14.9986 14.1025 12.6359 11.4727 12.1953Z" fill="#99A2AD"/>
<path d="M8.35345 12.1955C10.6434 12.1955 12.5057 9.67688 12.5057 7.30398C12.5057 4.93089 10.6434 3 8.35345 3C6.06388 3 4.20117 4.9307 4.20117 7.30379C4.20136 9.67688 6.06407 12.1955 8.35345 12.1955Z" fill="#99A2AD"/>
<path d="M16.9709 11.1536C18.7956 11.1536 20.2796 9.14665 20.2796 7.25581C20.2796 5.36481 18.7956 3.82617 16.9709 3.82617C15.1464 3.82617 13.6621 5.36465 13.6621 7.25565C13.6623 9.14665 15.1466 11.1536 16.9709 11.1536Z" fill="#99A2AD"/>
<path fill-rule="evenodd" clip-rule="evenodd" d="M17.1488 11.9623C18.0161 11.9623 18.8168 11.6606 19.4587 11.1538C21.5543 11.5049 23.1547 13.3876 23.1547 15.6584C23.1547 16.9059 20.3878 17.9173 16.9746 17.9173C16.8429 17.9173 16.7122 17.9158 16.5825 17.9129C16.8348 17.633 16.9712 17.3339 16.9712 17.0231C16.9712 14.4975 15.3975 12.3535 13.2109 11.5852C13.6068 11.3774 14.037 11.2298 14.4905 11.1538C15.1323 11.6606 15.9331 11.9623 16.8004 11.9623H17.1488Z" fill="#99A2AD"/>
</svg>
