<svg width="24" height="24" viewBox="0 0 24 24" fill="none" xmlns="http://www.w3.org/2000/svg">
<g clip-path="url(#clip0_44323_8308)">
<g clip-path="url(#clip1_44323_8308)">
<path d="M15.3333 2.5H6.16667C5.25 2.5 4.5 3.27727 4.5 4.22727V19.7727C4.5 20.7227 5.25 21.5 6.16667 21.5H17.8333C18.75 21.5 19.5 20.7227 19.5 19.7727V6.81818L15.3333 2.5ZM8.66667 7.68182H11.1667C11.625 7.68182 12 8.07045 12 8.54545C12 9.02045 11.625 9.40909 11.1667 9.40909H8.66667C8.20833 9.40909 7.83333 9.02045 7.83333 8.54545C7.83333 8.07045 8.20833 7.68182 8.66667 7.68182ZM15.3333 16.3182H8.66667C8.20833 16.3182 7.83333 15.9295 7.83333 15.4545C7.83333 14.9795 8.20833 14.5909 8.66667 14.5909H15.3333C15.7917 14.5909 16.1667 14.9795 16.1667 15.4545C16.1667 15.9295 15.7917 16.3182 15.3333 16.3182ZM15.3333 12.8636H8.66667C8.20833 12.8636 7.83333 12.475 7.83333 12C7.83333 11.525 8.20833 11.1364 8.66667 11.1364H15.3333C15.7917 11.1364 16.1667 11.525 16.1667 12C16.1667 12.475 15.7917 12.8636 15.3333 12.8636ZM14.5 6.81818V4.22727L17.8333 7.68182H15.3333C14.875 7.68182 14.5 7.29318 14.5 6.81818Z" fill="#93A2C1"/>
</g>
</g>
<defs>
<clipPath id="clip0_44323_8308">
<rect width="24" height="24" fill="white"/>
</clipPath>
<clipPath id="clip1_44323_8308">
<rect width="24" height="24" fill="white"/>
</clipPath>
</defs>
</svg>
