<svg width="24" height="24" viewBox="0 0 24 24" fill="none" xmlns="http://www.w3.org/2000/svg">
<path d="M18.38 5.57476C17.6119 4.80841 16.3711 4.80841 15.6031 5.57476L5.49989 15.6356C5.46045 15.6749 5.44081 15.6945 5.42116 15.7339C5.42116 15.7339 5.42116 15.7535 5.40151 15.7535C5.38186 15.7928 5.36207 15.8124 5.36207 15.8518V15.8714L4.02281 20.2337C3.96373 20.4498 4.02281 20.6659 4.16063 20.8232C4.2788 20.9411 4.41661 21 4.57421 21C4.63329 21 4.69238 21 4.75146 20.9804L9.10401 19.6442H9.12366C9.1631 19.6246 9.2024 19.6246 9.22218 19.6048C9.22218 19.6048 9.24183 19.6048 9.24183 19.5852C9.28126 19.5656 9.32056 19.5459 9.34035 19.5067L19.4239 9.44582C20.192 8.67948 20.192 7.44154 19.4239 6.67519L18.38 5.57476ZM5.48031 19.5067L6.20895 17.1683L7.84362 18.7993L5.48031 19.5067ZM18.5967 8.58118L17.4151 9.76017L15.2486 7.59865L16.4303 6.41966C16.7454 6.1053 17.2378 6.1053 17.5529 6.41966L18.6164 7.48075C18.9118 7.77563 18.9118 8.28644 18.5967 8.58118V8.58118Z" fill="#93A2C1"/>
</svg>
