<svg width="24" height="24" viewBox="0 0 24 24" fill="none" xmlns="http://www.w3.org/2000/svg">
<path fill-rule="evenodd" clip-rule="evenodd" d="M11.6161 3.00029H11.5985C11.376 3.00029 11.2129 3.11348 11.1351 3.2907L11.1281 3.30662L8.55288 8.73882L2.86079 9.58831C2.56457 9.63722 2.36625 9.9061 2.40377 10.2026C2.41372 10.2662 2.45374 10.3739 2.57058 10.5066L6.70534 14.7525L5.7269 20.7411C5.72688 20.7412 5.72692 20.741 5.7269 20.7411C5.68031 21.0289 5.87511 21.3005 6.15231 21.3513C6.32754 21.3717 6.4276 21.334 6.45657 21.3161L6.48335 21.2995L11.6014 18.4987L16.6834 21.3092C16.684 21.3096 16.6847 21.31 16.6854 21.3104C16.9388 21.4471 17.2535 21.3521 17.3898 21.124C17.4609 20.9734 17.4773 20.8475 17.4662 20.7449L16.4899 14.7758L20.6535 10.5275C20.8518 10.3293 20.8485 9.99265 20.645 9.79713L20.6364 9.78885L20.628 9.7804C20.5475 9.69997 20.4572 9.65584 20.3607 9.64303L20.3453 9.64098L14.639 8.73156L12.0692 3.28187C11.9979 3.12619 11.8374 3.00643 11.6161 3.00029ZM15.454 7.64629L20.5187 8.45348C20.8967 8.50367 21.2245 8.67987 21.4765 8.93187C22.1577 9.58647 22.1823 10.6959 21.5021 11.3761L17.7722 15.1818L18.6542 20.5741C18.7045 20.9521 18.6287 21.3301 18.4525 21.6825C17.9986 22.5143 16.9405 22.8165 16.1087 22.3627L11.5984 19.8683L7.08705 22.3371C6.76026 22.5389 6.35665 22.5891 5.97865 22.5389C5.02085 22.3883 4.39086 21.4807 4.54246 20.5485L5.42347 15.1562L1.69362 11.326C1.44163 11.0484 1.26543 10.7206 1.21523 10.3682C1.08923 9.43604 1.71923 8.55403 2.67703 8.40244L7.74273 7.64644L10.0363 2.80829C10.1129 2.63386 10.2147 2.47875 10.3363 2.34563C10.6538 1.99807 11.1064 1.80043 11.598 1.80029C12.278 1.80048 12.8839 2.1782 13.1604 2.78244L15.454 7.64629Z" fill="#7134F3"/>
</svg>
