<svg width="24" height="24" viewBox="0 0 24 24" fill="none" xmlns="http://www.w3.org/2000/svg">
<path d="M10.8809 12.1953C10.0753 12.8313 9.07048 13.2099 7.98205 13.2099H7.54493C6.4565 13.2099 5.4515 12.8313 4.64605 12.1953C2.0161 12.6359 0.0078125 14.9986 0.0078125 17.8483C0.0078125 19.4139 3.48008 20.6831 7.76349 20.6831C12.0469 20.6831 15.5192 19.4139 15.5192 17.8483C15.5192 14.9986 13.5107 12.6359 10.8809 12.1953Z" fill="#99A2AD"/>
<path d="M7.76165 12.1955C10.0516 12.1955 11.9139 9.67688 11.9139 7.30398C11.9139 4.93089 10.0516 3 7.76165 3C5.47208 3 3.60938 4.9307 3.60938 7.30379C3.60957 9.67688 5.47227 12.1955 7.76165 12.1955Z" fill="#99A2AD"/>
<path d="M16.3791 11.1536C18.2038 11.1536 19.6878 9.14665 19.6878 7.25581C19.6878 5.36481 18.2038 3.82617 16.3791 3.82617C14.5546 3.82617 13.0703 5.36465 13.0703 7.25565C13.0705 9.14665 14.5548 11.1536 16.3791 11.1536Z" fill="#99A2AD"/>
<path fill-rule="evenodd" clip-rule="evenodd" d="M18.8669 11.1538C18.225 11.6606 17.4243 11.9623 16.557 11.9623H16.2086C15.3413 11.9623 14.5405 11.6606 13.8987 11.1538C13.4452 11.2298 13.015 11.3774 12.6191 11.5852C14.4707 12.2358 15.8829 13.8729 16.2721 15.8929C17.1037 14.6998 18.486 13.9191 20.0506 13.9191C20.926 13.9191 21.7443 14.1635 22.4411 14.5878C22.0301 12.8166 20.6222 11.4479 18.8669 11.1538Z" fill="#99A2AD"/>
<path fill-rule="evenodd" clip-rule="evenodd" d="M17.6889 16.2989C18.3859 15.6019 19.3135 15.2178 20.2994 15.2178C21.285 15.2178 22.2127 15.6019 22.9096 16.2989C24.3478 17.7374 24.3466 20.0782 22.9074 21.5175C22.1883 22.2367 21.243 22.5961 20.2991 22.5961C19.3552 22.5961 18.4099 22.2367 17.6908 21.5176C16.9942 20.8208 16.6097 19.8931 16.6094 18.9076C16.609 17.9222 16.9928 16.9949 17.6889 16.2989ZM18.4861 17.0961C18.9858 16.5964 19.6419 16.3464 20.2994 16.3464C20.7759 16.3464 21.252 16.4791 21.6685 16.7427L18.1343 20.2768C17.8761 19.8709 17.7371 19.4004 17.7369 18.9072C17.7366 18.222 18.0025 17.5796 18.4861 17.0961ZM18.9321 21.0735L22.4655 17.5401C23.0905 18.5297 22.9724 19.8579 22.1102 20.7203C21.2492 21.5813 19.9216 21.6985 18.9321 21.0735Z" fill="#99A2AD"/>
</svg>
