<svg width="24" height="24" viewBox="0 0 24 24" fill="none" xmlns="http://www.w3.org/2000/svg">
<path fill-rule="evenodd" clip-rule="evenodd" d="M11.6474 13.3563C12.9643 13.3563 14.1799 12.8981 15.1546 12.1284C16.533 12.3594 17.7704 13.0271 18.7301 13.9901C18.6701 13.9879 18.6098 13.9868 18.5492 13.9868C15.9116 13.9868 13.7734 16.1256 13.7734 18.764C13.7734 20.0687 14.2964 21.2513 15.144 22.1135C13.9926 22.2979 12.7205 22.4002 11.383 22.4002C6.20084 22.4002 2 20.8641 2 18.9696C2 15.5209 4.42968 12.6616 7.61146 12.1284C8.58591 12.8981 9.80179 13.3563 11.1186 13.3563H11.6474Z" fill="#99A2AD"/>
<path d="M11.381 12.1282C14.1514 12.1282 16.4045 9.08021 16.4045 6.20859C16.4045 3.33673 14.1514 1 11.381 1C8.61098 1 6.35742 3.33649 6.35742 6.20835C6.35765 9.08021 8.61121 12.1282 11.381 12.1282Z" fill="#99A2AD"/>
<path d="M18.69 15C20.7279 15 22.38 16.6521 22.38 18.69C22.38 20.7279 20.7279 22.38 18.69 22.38C16.6521 22.38 15 20.7279 15 18.69C15 16.6521 16.6521 15 18.69 15ZM19.8273 16.965L18.69 18.1028L17.5533 16.965C17.3912 16.8029 17.1284 16.8029 16.9663 16.965C16.8042 17.1271 16.8042 17.39 16.9663 17.5521L18.1033 18.6905L16.9663 19.8293C16.8042 19.9914 16.8042 20.2542 16.9663 20.4164C17.1284 20.5785 17.3912 20.5785 17.5533 20.4164L18.69 19.2781L19.8273 20.4164C19.9894 20.5785 20.2523 20.5785 20.4144 20.4164C20.5765 20.2542 20.5765 19.9914 20.4144 19.8293L19.2767 18.6905L20.4144 17.5521C20.5765 17.39 20.5765 17.1271 20.4144 16.965C20.2523 16.8029 19.9894 16.8029 19.8273 16.965Z" fill="#99A2AD"/>
</svg>
