<svg width="24" height="24" viewBox="0 0 24 24" fill="none" xmlns="http://www.w3.org/2000/svg">
<g clip-path="url(#clip0_44323_8430)">
<path d="M24 12C24 5.38382 18.6162 0 12 0C5.38382 0 0 5.38382 0 12C0 13.1814 0.170757 14.336 0.501287 15.4399C0.178743 16.184 0 17.0054 0 17.8667C0 21.248 2.75205 24 6.13335 24C6.72263 24 7.19992 23.5227 7.19992 22.9334V12.8001C7.19992 12.2108 6.72263 11.7335 6.13335 11.7335C4.63744 11.7335 3.26672 12.2722 2.20272 13.1654C2.15733 12.7813 2.13334 12.392 2.13334 12C2.13334 6.56001 6.56006 2.13334 12 2.13334C17.44 2.13334 21.8667 6.56006 21.8667 12C21.8667 12.392 21.8427 12.7813 21.7973 13.1654C20.7333 12.272 19.3628 11.7333 17.8667 11.7333C17.2774 11.7333 16.8001 12.2106 16.8001 12.7999V22.9332C16.8001 23.5225 17.2774 23.9998 17.8667 23.9998C21.248 23.9998 24 21.2478 24 17.8665C24 17.005 23.8213 16.1838 23.4988 15.4397C23.8293 14.3334 24 13.1814 24 12Z" fill="#161318"/>
</g>
<defs>
<clipPath id="clip0_44323_8430">
<rect width="24" height="24" fill="white"/>
</clipPath>
</defs>
</svg>
