<svg width="25" height="24" viewBox="0 0 25 24" fill="none" xmlns="http://www.w3.org/2000/svg">
<path d="M21.7267 10.5524L12.8646 3.26803C12.4288 2.91008 11.78 2.91077 11.3457 3.26943L2.5213 10.5541C1.71932 11.2163 2.21611 12.4621 3.28185 12.4621C3.91922 12.4621 4.43599 12.9495 4.43599 13.551V19.9111C4.43599 20.5126 4.95314 20.9997 5.59051 20.9997H9.63556V15.4256C9.63556 15.0854 9.92742 14.8101 10.2877 14.8101H13.9621C14.3224 14.8101 14.6147 15.0854 14.6147 15.4256V21H18.4563C19.094 21 19.6108 20.513 19.6108 19.9115V13.5514C19.6108 12.9499 20.1275 12.4625 20.7649 12.4625H20.9684C22.0352 12.4618 22.5313 11.2135 21.7267 10.5524Z" fill="#444245"/>
</svg>
