<svg width="24" height="24" viewBox="0 0 24 24" fill="none" xmlns="http://www.w3.org/2000/svg">
<path d="M21.8653 4.47368H19.5263V2.13474C19.5263 1.50947 19.0168 1 18.3916 1H18.3568C17.72 1 17.2105 1.50947 17.2105 2.13474V4.47368H14.8832C14.2579 4.47368 13.7484 4.98316 13.7368 5.60842V5.64316C13.7368 6.28 14.2463 6.78947 14.8832 6.78947H17.2105V9.11684C17.2105 9.74211 17.72 10.2632 18.3568 10.2516H18.3916C19.0168 10.2516 19.5263 9.74211 19.5263 9.11684V6.78947H21.8653C22.4905 6.78947 23 6.28 23 5.65474V5.60842C23 4.98316 22.4905 4.47368 21.8653 4.47368ZM16.0526 9.11684V7.94737H14.8832C14.2695 7.94737 13.6905 7.70421 13.2505 7.27579C12.8221 6.83579 12.5789 6.25684 12.5789 5.60842C12.5789 5.19158 12.6947 4.80947 12.8916 4.47368H3.31579C2.04211 4.47368 1 5.51579 1 6.78947V20.6842C1 21.9579 2.04211 23 3.31579 23H17.2105C18.4842 23 19.5263 21.9579 19.5263 20.6842V11.0968C19.1789 11.2937 18.7853 11.4211 18.3453 11.4211C17.0832 11.4095 16.0526 10.3789 16.0526 9.11684ZM16.0063 20.6842H4.47368C3.99895 20.6842 3.72105 20.14 4.01053 19.7579L6.30316 16.7126C6.54632 16.3884 7.02105 16.4116 7.25263 16.7358L9.10526 19.5263L12.1274 15.4968C12.3589 15.1958 12.8105 15.1842 13.0421 15.4853L16.4579 19.7463C16.7589 20.1284 16.4926 20.6842 16.0063 20.6842V20.6842Z" fill="#93A2C1"/>
</svg>
