<svg width="24" height="24" viewBox="0 0 24 24" fill="none" xmlns="http://www.w3.org/2000/svg">
<path fill-rule="evenodd" clip-rule="evenodd" d="M2.77551 4.00362C3.78511 3.01881 5.15424 2.46558 6.58182 2.46558C8.00939 2.46558 9.37853 3.01881 10.3881 4.00362L11.9656 5.54147L13.543 4.00362C14.0396 3.50189 14.6337 3.1017 15.2905 2.82639C15.9474 2.55108 16.6538 2.40616 17.3687 2.4001C18.0835 2.39404 18.7925 2.52695 19.4541 2.79108C20.1158 3.05522 20.7169 3.44527 21.2224 3.9385C21.7279 4.43173 22.1276 5.01825 22.3983 5.66384C22.669 6.30943 22.8052 7.00116 22.799 7.69866C22.7928 8.39617 22.6443 9.08548 22.3621 9.72638C22.08 10.3673 21.6698 10.9469 21.1556 11.4315L11.9656 20.3999L2.77551 11.4315C1.76621 10.4464 1.19922 9.11051 1.19922 7.71757C1.19922 6.32463 1.76621 4.98872 2.77551 4.00362V4.00362Z" fill="black"/>
</svg>
