<svg width="24" height="24" viewBox="0 0 24 24" fill="none" xmlns="http://www.w3.org/2000/svg">
<path d="M12.0069 1C7.06999 1 3 5.08968 3 10.1495C3 12.6993 3.89258 15.0664 5.36171 17.0727C6.98244 19.2859 8.98007 21.2141 11.2286 22.7277C11.7432 23.0775 12.2077 23.1039 12.7725 22.7277C15.0338 21.2141 17.0314 19.2859 18.6383 17.0727C20.1085 15.0664 21 12.6993 21 10.1495C21 5.08968 16.93 1 12.0069 1ZM12.0069 7.35452C13.6394 7.35452 14.9708 8.75257 14.9708 10.4344C14.9708 12.1295 13.6394 13.4626 12.0069 13.4626C10.3734 13.4626 9.02918 12.1295 9.02918 10.4344C9.02918 8.75257 10.3734 7.35452 12.0069 7.35452Z" fill="black"/>
</svg>
