<svg width="68" height="68" viewBox="0 0 68 68" fill="none" xmlns="http://www.w3.org/2000/svg">
<rect x="16.4258" y="30.5361" width="35.6324" height="29.1544" fill="#EAEAEA"/>
<path d="M34.1741 7.95117C26.8822 7.95117 20.9498 13.8612 20.9498 21.1255V29.3956H17.3483C16.1913 29.3956 15.25 30.3333 15.25 31.4859V58.8296C15.25 59.9822 16.1913 60.9199 17.3483 60.9199H50.9999C52.1569 60.9199 53.0981 59.9822 53.0981 58.8296V31.4859C53.0981 30.3333 52.1569 29.3956 50.9999 29.3956H47.3983V21.1255C47.3983 13.8612 41.4659 7.95117 34.1741 7.95117ZM22.4524 21.1255C22.4524 14.6864 27.7105 9.44804 34.1741 9.44804C40.6376 9.44804 45.8958 14.6864 45.8958 21.1255V29.3956H22.4524V21.1255ZM51.5956 31.4859V58.8296C51.5956 59.157 51.3285 59.4231 50.9999 59.4231H17.3483C17.0196 59.4231 16.7525 59.157 16.7525 58.8296V31.4859C16.7525 31.1585 17.0196 30.8924 17.3483 30.8924H21.7011H46.6471H50.9999C51.3285 30.8924 51.5956 31.1585 51.5956 31.4859Z" fill="#BEBEBE"/>
<path d="M29.5098 43.8892C29.5098 41.3267 31.6022 39.2422 34.1737 39.2422C36.7451 39.2422 38.8375 41.3267 38.8375 43.8892C38.8375 45.3225 38.178 46.6578 37.054 47.5371V51.5139C37.054 51.9276 36.718 52.2623 36.3027 52.2623H32.0438C31.6286 52.2623 31.2926 51.9276 31.2926 51.5139V47.5364C30.1693 46.6578 29.5098 45.3232 29.5098 43.8892Z" fill="white"/>
<path d="M34.1737 39.2422C31.6022 39.2422 29.5098 41.3267 29.5098 43.8892C29.5098 45.3232 30.1693 46.6578 31.2926 47.5364V51.5139C31.2926 51.9276 31.6286 52.2623 32.0438 52.2623H36.3027C36.718 52.2623 37.054 51.9276 37.054 51.5139V47.5371C38.178 46.6578 38.8375 45.3225 38.8375 43.8892C38.8375 41.3267 36.7451 39.2422 34.1737 39.2422ZM35.8926 46.5263C35.6799 46.6644 35.5515 46.9005 35.5515 47.1534V50.7654H32.7951V47.1526C32.7951 46.8998 32.6667 46.6637 32.454 46.5255C31.5508 45.9401 31.0123 44.9548 31.0123 43.8892C31.0123 42.1519 32.4305 40.7391 34.1737 40.7391C35.9168 40.7391 37.335 42.1519 37.335 43.8892C37.335 44.9541 36.7958 45.9401 35.8926 46.5263Z" fill="#BEBEBE"/>
</svg>
