<svg width="24" height="24" viewBox="0 0 24 24" fill="none" xmlns="http://www.w3.org/2000/svg">
<g clip-path="url(#clip0_44323_8385)">
<path fill-rule="evenodd" clip-rule="evenodd" d="M17 8H18C19.1 8 20 8.9 20 10V20C20 21.1 19.1 22 18 22H6C4.9 22 4 21.1 4 20V10C4 8.9 4.9 8 6 8H7V6C7 3.24 9.24 1 12 1C14.76 1 17 3.24 17 6V8ZM9 6V8H15V6C15 4.34 13.66 3 12 3C10.34 3 9 4.34 9 6ZM12 12.5C11.4477 12.5 11 12.9477 11 13.5V16.5C11 17.0523 11.4477 17.5 12 17.5C12.5523 17.5 13 17.0523 13 16.5V13.5C13 12.9477 12.5523 12.5 12 12.5Z" fill="black"/>
</g>
<defs>
<clipPath id="clip0_44323_8385">
<rect width="24" height="24" fill="white"/>
</clipPath>
</defs>
</svg>
