<svg width="24" height="24" viewBox="0 0 24 24" fill="none" xmlns="http://www.w3.org/2000/svg">
<path fill-rule="evenodd" clip-rule="evenodd" d="M23 8C23.5523 8 24 7.55228 24 7V6C24 3.24 22.26 1 19.5 1C16.74 1 15 3.24 15 6V8H9H7H6C4.9 8 4 8.9 4 10V20C4 21.1 4.9 22 6 22H18C19.1 22 20 21.1 20 20V10C20 8.9 19.1 8 18 8H17V6C17 4.34 17.84 3 19.5 3C21.16 3 22 4.34 22 6V7C22 7.55228 22.4477 8 23 8ZM12 12.5C11.4477 12.5 11 12.9477 11 13.5V16.5C11 17.0523 11.4477 17.5 12 17.5C12.5523 17.5 13 17.0523 13 16.5V13.5C13 12.9477 12.5523 12.5 12 12.5Z" fill="black"/>
</svg>
