<svg width="28" height="28" viewBox="0 0 28 28" fill="none" xmlns="http://www.w3.org/2000/svg">
<path d="M13.9922 0.446289C20.0995 0.446289 25.1343 5.48548 25.1343 11.7201C25.1343 14.8618 24.0301 17.7785 22.2127 20.2507C20.2078 22.9776 17.7366 25.3536 14.955 27.2185C14.3184 27.6495 13.7439 27.6821 13.0452 27.2185C10.2477 25.3536 7.77655 22.9776 5.78876 20.2507C3.97004 17.7785 2.86719 14.8618 2.86719 11.7201C2.86719 5.48548 7.90202 0.446289 13.9922 0.446289ZM13.9922 8.27615C11.9727 8.27615 10.3257 9.9988 10.3257 12.0711C10.3257 14.1597 11.9727 15.8024 13.9922 15.8024C16.013 15.8024 17.6758 14.1597 17.6758 12.0711C17.6758 9.9988 16.013 8.27615 13.9922 8.27615Z" fill="#8AB1EC"/>
<path fill-rule="evenodd" clip-rule="evenodd" d="M13.9916 1.12752C8.32471 1.12752 3.62195 5.86342 3.62195 11.7397C3.62195 14.7185 4.65764 17.4954 6.384 19.863L6.38545 19.865C8.29984 22.5148 10.6797 24.8232 13.3723 26.6345C13.6515 26.8214 13.8545 26.8745 14.0149 26.8724C14.1764 26.8703 14.3679 26.8111 14.6222 26.6373L14.6243 26.6359C17.3025 24.8243 19.6836 22.5148 21.6159 19.8632C23.3412 17.4953 24.378 14.7183 24.378 11.7397C24.378 5.86399 19.6758 1.12752 13.9916 1.12752ZM2.5 11.7397C2.5 5.25499 7.69096 0 13.9916 0C20.3085 0 25.5 5.25443 25.5 11.7397C25.5 14.9899 24.3671 17.9957 22.5211 20.5293L22.5211 20.5293C20.5137 23.284 18.0392 25.6849 15.2517 27.5707C14.8809 27.8238 14.4778 27.9939 14.0296 27.9998C13.5797 28.0058 13.1573 27.8454 12.7501 27.5728L12.7491 27.5721C9.94531 25.6862 7.46969 23.2846 5.47831 20.5285C3.6312 17.9949 2.5 14.9894 2.5 11.7397ZM9.82815 12.0877C9.82815 9.74435 11.6758 7.76189 13.9916 7.76189C16.3055 7.76189 18.1718 9.741 18.1718 12.0877C18.1718 14.4647 16.2917 16.3503 13.9916 16.3503C11.6895 16.3503 9.82815 14.4614 9.82815 12.0877ZM13.9916 8.88941C12.339 8.88941 10.9501 10.3223 10.9501 12.0877C10.9501 13.8549 12.3252 15.2228 13.9916 15.2228C15.6624 15.2228 17.0499 13.8516 17.0499 12.0877C17.0499 10.3257 15.6487 8.88941 13.9916 8.88941Z" fill="white"/>
</svg>
