<svg width="28" height="28" viewBox="0 0 28 28" fill="none" xmlns="http://www.w3.org/2000/svg">
<path d="M26.998 14.0005C26.998 21.1802 21.1777 27.0005 13.998 27.0005C6.81835 27.0005 0.998047 21.1802 0.998047 14.0005C0.998047 6.82079 6.81835 1.00049 13.998 1.00049C21.1777 1.00049 26.998 6.82079 26.998 14.0005Z" fill="#F5B376"/>
<path fill-rule="evenodd" clip-rule="evenodd" d="M28 14C28 21.732 21.732 28 14 28C6.26801 28 0 21.732 0 14C0 6.26801 6.26801 0 14 0C21.732 0 28 6.26801 28 14ZM14 26.9231C21.1372 26.9231 26.9231 21.1372 26.9231 14C26.9231 6.86278 21.1372 1.07692 14 1.07692C6.86278 1.07692 1.07692 6.86278 1.07692 14C1.07692 21.1372 6.86278 26.9231 14 26.9231Z" fill="white"/>
<path d="M13.9991 14.2912C16.0085 14.2912 17.6427 12.0811 17.6427 9.99889C17.6427 7.91651 16.0085 6.22217 13.9991 6.22217C11.99 6.22217 10.3555 7.91634 10.3555 9.99871C10.3556 12.0811 11.9901 14.2912 13.9991 14.2912Z" fill="white"/>
<path d="M16.7364 14.2915C16.0295 14.8496 15.1477 15.1818 14.1927 15.1818H13.8091C12.854 15.1818 11.9721 14.8496 11.2653 14.2915C8.95757 14.6781 7.19531 16.7514 7.19531 19.252C7.19531 20.6257 10.2422 21.7395 14.0009 21.7395C17.7595 21.7395 20.8064 20.6257 20.8064 19.252C20.8064 16.7514 19.044 14.6781 16.7364 14.2915Z" fill="white"/>
</svg>
