<svg id="Layer_1" data-name="Layer 1" xmlns="http://www.w3.org/2000/svg" viewBox="0 0 200 200"><defs><style>.cls-1{fill-rule:evenodd;}</style></defs><title>min-hh-white</title><path class="cls-1" d="M204.14,262.08a100,100,0,1,0-100-100,100,100,0,0,0,100,100ZM160,115v34q7.77-9.27,18.59-9.29a23.07,23.07,0,0,1,10,2.12,16.4,16.4,0,0,1,6.73,5.36,19.67,19.67,0,0,1,3.09,7.25,66.09,66.09,0,0,1,.83,12.31v36.37h-16.1V170.33c0-6.5-.29-10.62-.9-12.37A8,8,0,0,0,179,153.8a10.11,10.11,0,0,0-5.81-1.57,13,13,0,0,0-7.14,2,11.29,11.29,0,0,0-4.61,6Q160,164.21,160,172l0,31.06H143.92V115Zm63.36,0v34q7.77-9.27,18.59-9.29a23.2,23.2,0,0,1,10,2.12,16.34,16.34,0,0,1,6.71,5.36,19.52,19.52,0,0,1,3.1,7.25,66.28,66.28,0,0,1,.82,12.31v36.37H246.54V170.33q0-9.75-.92-12.37a8,8,0,0,0-3.23-4.16,10.09,10.09,0,0,0-5.81-1.57,13,13,0,0,0-7.14,2,11.49,11.49,0,0,0-4.61,6q-1.46,4-1.46,11.82v31.06H207.3V115Zm0,0" transform="translate(-104.14 -62.08)"/></svg>