<svg width="68" height="68" viewBox="0 0 68 68" fill="none" xmlns="http://www.w3.org/2000/svg">
<path fill-rule="evenodd" clip-rule="evenodd" d="M6 12.9055C6 10.6535 7.85565 8.79785 10.1076 8.79785H46.3812C48.6332 8.79785 50.4888 10.6535 50.4888 12.9055V27.6515H57.8922C60.145 27.6515 61.9995 29.5054 61.9995 31.7566V52.6035C61.9995 56.2238 59.0866 59.1368 55.4662 59.1368H10.1076C7.85565 59.1368 6 57.2811 6 55.0291V12.9055ZM10.1076 10.353C8.68455 10.353 7.55555 11.4895 7.55555 12.9051V55.0897C7.55555 56.5128 8.69202 57.6418 10.1077 57.6418L50.5766 57.6414L49.5311 55.4228C49.1348 54.582 48.9333 53.689 48.9333 52.6637L48.9357 12.9051C48.9357 11.482 47.7993 10.353 46.3837 10.353H10.1076ZM15.5843 19.5625C15.5843 19.1491 15.9097 18.8163 16.3305 18.8163H23.1115C23.5248 18.8163 23.8576 19.1417 23.8576 19.5625V29.2069C23.8576 29.6202 23.5323 29.953 23.1115 29.953H16.3305C15.8668 29.953 15.5644 29.5946 15.5825 29.2185L15.5843 29.181V19.5625ZM31.0764 19.5627C31.0764 19.1494 31.4017 18.8166 31.8225 18.8166H40.159C40.5825 18.8166 40.906 19.1515 40.9052 19.5597L40.9052 19.5627C40.9052 19.9761 40.5798 20.3089 40.159 20.3089H31.8225C31.4372 20.3089 31.0764 19.9481 31.0764 19.5627ZM31.0764 29.1438C31.0764 28.7305 31.4017 28.3976 31.8225 28.3976H40.159C40.5825 28.3976 40.906 28.7326 40.9052 29.1407L40.9052 29.1438C40.9052 29.5571 40.5798 29.8899 40.159 29.8899H31.8225C31.4372 29.8899 31.0764 29.5291 31.0764 29.1438ZM57.8918 29.207H50.4884V52.6641C50.4884 55.3898 52.7404 57.6418 55.4662 57.6418C58.1919 57.6418 60.4439 55.3898 60.4439 52.6641V31.7591C60.4439 30.336 59.3075 29.207 57.8918 29.207ZM15.5837 38.788C15.5837 38.3747 15.909 38.0419 16.3299 38.0419H40.159C40.582 38.0419 40.9077 38.377 40.9077 38.788C40.9077 39.2014 40.5823 39.5342 40.1615 39.5342H16.3299C15.9445 39.5342 15.5837 39.1734 15.5837 38.788ZM15.5837 48.369C15.5837 47.9557 15.909 47.6229 16.3299 47.6229H40.159C40.5809 47.6229 40.9077 47.9593 40.9077 48.369C40.9077 48.7824 40.5823 49.1152 40.1615 49.1152H16.3299C15.9165 49.1152 15.5837 48.7899 15.5837 48.369Z" fill="#BEBEBE"/>
<path d="M50.2207 29H60.7187V52.751C60.7187 55.6499 58.3686 58 55.4697 58V58C52.5708 58 50.2207 55.6499 50.2207 52.751V29Z" fill="#EAEAEA"/>
<path fill-rule="evenodd" clip-rule="evenodd" d="M6 12.9055C6 10.6535 7.85565 8.79785 10.1076 8.79785H46.3812C48.6332 8.79785 50.4888 10.6535 50.4888 12.9055V27.6515H57.8922C60.145 27.6515 61.9995 29.5054 61.9995 31.7566V52.6035C61.9995 56.2238 59.0866 59.1368 55.4662 59.1368H10.1076C7.85565 59.1368 6 57.2811 6 55.0291V12.9055ZM10.1076 10.353C8.68455 10.353 7.55555 11.4895 7.55555 12.9051V55.0897C7.55555 56.5128 8.69202 57.6418 10.1077 57.6418L50.5766 57.6414L49.5311 55.4228C49.1348 54.582 48.9333 53.689 48.9333 52.6637L48.9357 12.9051C48.9357 11.482 47.7993 10.353 46.3837 10.353H10.1076ZM15.5843 19.5625C15.5843 19.1491 15.9097 18.8163 16.3305 18.8163H23.1115C23.5248 18.8163 23.8576 19.1417 23.8576 19.5625V29.2069C23.8576 29.6202 23.5323 29.953 23.1115 29.953H16.3305C15.8668 29.953 15.5644 29.5946 15.5825 29.2185L15.5843 29.181V19.5625ZM31.0764 19.5627C31.0764 19.1494 31.4017 18.8166 31.8225 18.8166H40.159C40.5825 18.8166 40.906 19.1515 40.9052 19.5597L40.9052 19.5627C40.9052 19.9761 40.5798 20.3089 40.159 20.3089H31.8225C31.4372 20.3089 31.0764 19.9481 31.0764 19.5627ZM31.0764 29.1438C31.0764 28.7305 31.4017 28.3976 31.8225 28.3976H40.159C40.5825 28.3976 40.906 28.7326 40.9052 29.1407L40.9052 29.1438C40.9052 29.5571 40.5798 29.8899 40.159 29.8899H31.8225C31.4372 29.8899 31.0764 29.5291 31.0764 29.1438ZM57.8918 29.207H50.4884V52.6641C50.4884 55.3898 52.7404 57.6418 55.4662 57.6418C58.1919 57.6418 60.4439 55.3898 60.4439 52.6641V31.7591C60.4439 30.336 59.3075 29.207 57.8918 29.207ZM15.5837 38.788C15.5837 38.3747 15.909 38.0419 16.3299 38.0419H40.159C40.582 38.0419 40.9077 38.377 40.9077 38.788C40.9077 39.2014 40.5823 39.5342 40.1615 39.5342H16.3299C15.9445 39.5342 15.5837 39.1734 15.5837 38.788ZM15.5837 48.369C15.5837 47.9557 15.909 47.6229 16.3299 47.6229H40.159C40.5809 47.6229 40.9077 47.9593 40.9077 48.369C40.9077 48.7824 40.5823 49.1152 40.1615 49.1152H16.3299C15.9165 49.1152 15.5837 48.7899 15.5837 48.369Z" fill="#BEBEBE"/>
</svg>
