<svg width="68" height="69" viewBox="0 0 68 69" fill="none" xmlns="http://www.w3.org/2000/svg">
<path d="M59.0005 47.9721C56.758 45.4512 52.5621 41.6588 52.5621 29.2362C52.5621 20.0923 46.6232 12.7161 38.4958 10.5825C38.0407 10.4631 37.7119 10.059 37.7119 9.58855V7.8639C37.7119 5.71817 36.0498 3.97803 34 3.97803C31.9502 3.97803 30.288 5.71817 30.288 7.8639V9.58855C30.288 10.059 29.9592 10.4631 29.5042 10.5825C21.3768 12.7161 15.4379 20.0923 15.4379 29.2362C15.4379 41.6588 11.2419 45.4512 8.99945 47.9721C8.30303 48.7554 7.99428 49.6916 8.00008 50.6085C8.01285 52.6 9.50668 54.4943 11.726 54.4943H56.274C58.4933 54.4943 59.9883 52.6 59.9999 50.6085C60.0057 49.6916 59.697 48.7542 59.0005 47.9721Z" fill="#EAEAEA"/>
<path fill-rule="evenodd" clip-rule="evenodd" d="M58.5616 47.4859L58.5647 47.4893C58.7164 47.6562 58.8622 47.8167 59.0005 47.9721C59.697 48.7542 60.0057 49.6916 59.9999 50.6085C59.9883 52.6 58.4933 54.4943 56.274 54.4943H11.726C9.50668 54.4943 8.01285 52.6 8.00008 50.6085C7.99428 49.6916 8.30303 48.7554 8.99945 47.9721C9.13874 47.8156 9.28556 47.6541 9.43844 47.4859C11.747 44.9468 15.4379 40.8872 15.4379 29.2362C15.4379 20.0923 21.3768 12.7161 29.5042 10.5825C29.9592 10.4631 30.288 10.059 30.288 9.58855V7.8639C30.288 5.71817 31.9502 3.97803 34 3.97803C36.0498 3.97803 37.7119 5.71817 37.7119 7.8639V9.58855C37.7119 10.059 38.0407 10.4631 38.4958 10.5825C46.6232 12.7161 52.5621 20.0923 52.5621 29.2362C52.5621 40.8872 56.253 44.9468 58.5616 47.4859ZM10.0457 48.9024C10.1773 48.7545 10.319 48.5989 10.4691 48.4341C11.5515 47.2454 13.0671 45.581 14.3257 42.9149C15.7611 39.8741 16.8379 35.6077 16.8379 29.2362C16.8379 20.7244 22.3517 13.9076 29.8597 11.9366C30.8952 11.6648 31.688 10.7307 31.688 9.58855V7.8639C31.688 6.43023 32.7831 5.37803 34 5.37803C35.2169 5.37803 36.3119 6.43023 36.3119 7.8639V9.58855C36.3119 10.7307 37.1047 11.6648 38.1403 11.9366C45.6483 13.9076 51.1621 20.7244 51.1621 29.2362C51.1621 35.6077 52.2389 39.8741 53.6743 42.9149C54.9329 45.581 56.4486 47.2455 57.5309 48.4341C57.6811 48.5989 57.8229 48.7547 57.9545 48.9026C58.4078 49.4116 58.6037 50.0101 58.5999 50.6003C58.592 51.9669 57.5858 53.0943 56.274 53.0943H11.726C10.4149 53.0943 9.40888 51.9675 9.40005 50.5995C9.39635 50.0101 9.59147 49.4134 10.0457 48.9024Z" fill="#BEBEBE"/>
<path d="M33.9999 65.0217C37.7766 65.0217 40.8962 62.0693 41.3643 58.2481C41.4315 57.6999 40.9773 57.25 40.425 57.25H27.5748C27.0226 57.25 26.5684 57.6999 26.6355 58.2481C27.1036 62.0693 30.2233 65.0217 33.9999 65.0217Z" fill="white"/>
<path fill-rule="evenodd" clip-rule="evenodd" d="M39.8795 58.65C39.2697 61.5356 36.8278 63.6217 33.9999 63.6217C31.172 63.6217 28.7301 61.5356 28.1204 58.65H39.8795ZM41.3643 58.2481C40.8962 62.0693 37.7766 65.0217 33.9999 65.0217C30.2233 65.0217 27.1036 62.0693 26.6355 58.2481C26.5684 57.6999 27.0226 57.25 27.5748 57.25H40.425C40.9773 57.25 41.4315 57.6999 41.3643 58.2481Z" fill="#BEBEBE"/>
</svg>
