<svg width="24" height="24" viewBox="0 0 24 24" fill="none" xmlns="http://www.w3.org/2000/svg">
<path d="M12 22C13.2614 22 14.2846 20.9368 14.2846 19.625H9.71536C9.71536 20.9368 10.7386 22 12 22ZM19.6925 16.4444C19.0025 15.674 17.7114 14.515 17.7114 10.7188C17.7114 7.83535 15.7657 5.52715 13.1421 4.96086V4.1875C13.1421 3.53178 12.6307 3 12 3C11.3693 3 10.8579 3.53178 10.8579 4.1875V4.96086C8.2343 5.52715 6.28859 7.83535 6.28859 10.7188C6.28859 14.515 4.99752 15.674 4.30752 16.4444C4.09324 16.6837 3.99824 16.9698 4.00002 17.25C4.00395 17.8586 4.46359 18.4375 5.14645 18.4375H18.8536C19.5364 18.4375 19.9964 17.8586 20 17.25C20.0018 16.9698 19.9068 16.6833 19.6925 16.4444V16.4444Z" fill="#93A2C1"/>
</svg>
