<svg width="24" height="24" viewBox="0 0 24 24" fill="none" xmlns="http://www.w3.org/2000/svg">
<rect width="24" height="24" fill="white"/>
<path fill-rule="evenodd" clip-rule="evenodd" d="M11.9998 22C13.2613 22 14.2845 20.9368 14.2845 19.625H9.71521C9.71521 20.9368 10.7384 22 11.9998 22ZM19.5576 16.2961L19.5573 16.2958C18.8469 15.5198 17.7113 14.2792 17.7113 10.7188C17.7113 10.627 17.7093 10.5357 17.7054 10.4452L9.71304 18.4375H18.8534C19.5363 18.4375 19.9963 17.8586 19.9998 17.25C20.0016 16.9698 19.9066 16.6833 19.6923 16.4444C19.6496 16.3966 19.6045 16.3474 19.5576 16.2961ZM16.3226 6.86474L19.2927 3.89461C19.6833 3.50408 20.3164 3.50408 20.707 3.89461C21.0975 4.28513 21.0975 4.9183 20.707 5.30882L4.12117 21.8946C3.73064 22.2851 3.09748 22.2851 2.70696 21.8946C2.31643 21.5041 2.31643 20.8709 2.70696 20.4804L4.80236 18.385C4.31348 18.2293 4.0031 17.7496 3.99987 17.25C3.99809 16.9698 4.09309 16.6837 4.30737 16.4444C4.35022 16.3965 4.39538 16.3472 4.44241 16.2958L4.44245 16.2958C5.15277 15.5198 6.28844 14.2792 6.28844 10.7188C6.28844 7.83535 8.23415 5.52715 10.8577 4.96086V4.1875C10.8577 3.53178 11.3691 3 11.9998 3C12.6306 3 13.142 3.53178 13.142 4.1875V4.96086C14.4073 5.23396 15.5149 5.91222 16.3226 6.86474Z" fill="#161318"/>
</svg>
