<svg width="24" height="24" viewBox="0 0 24 24" fill="none" xmlns="http://www.w3.org/2000/svg">
<path d="M17.1748 7.36946H3.95911C3.41981 7.37097 2.90304 7.58601 2.52162 7.96725C2.14038 8.34867 1.92533 8.86543 1.92383 9.40473V16.596C1.92534 17.1353 2.14038 17.6521 2.52162 18.0335C2.90304 18.4148 3.41981 18.6298 3.95911 18.6313H17.1748C17.7149 18.6321 18.233 18.4178 18.6148 18.036C18.9966 17.6542 19.2109 17.1361 19.2101 16.596V9.40473C19.2109 8.86466 18.9966 8.34658 18.6148 7.96477C18.233 7.58297 17.7149 7.36868 17.1748 7.36946V7.36946ZM5.8994 13.6788H5.32962C4.95482 13.6788 4.6512 13.375 4.6512 13.0004C4.6512 12.6258 4.95482 12.322 5.32962 12.322H5.8996H5.89941C6.27402 12.322 6.57784 12.6258 6.57784 13.0004C6.57784 13.375 6.27402 13.6788 5.89941 13.6788H5.8994ZM10.567 15.9583C9.78252 15.9583 9.0301 15.6467 8.47549 15.0919C7.92068 14.5373 7.60909 13.7848 7.60909 13.0004C7.60909 12.216 7.92066 11.4635 8.47549 10.9089C9.0301 10.3541 9.78257 10.0425 10.567 10.0425C11.3514 10.0425 12.1039 10.3541 12.6585 10.9089C13.2133 11.4635 13.5249 12.216 13.5249 13.0004C13.5262 13.7852 13.215 14.5384 12.66 15.0934C12.1049 15.6484 11.3518 15.9596 10.567 15.9583V15.9583ZM15.818 13.6788H15.2346C14.86 13.6788 14.5562 13.375 14.5562 13.0004C14.5562 12.6258 14.86 12.322 15.2346 12.322H15.818C16.1928 12.322 16.4964 12.6258 16.4964 13.0004C16.4964 13.375 16.1928 13.6788 15.818 13.6788ZM21.9238 6.69103V13.8823C21.9236 14.3026 21.7928 14.7122 21.5498 15.0548C21.3069 15.3976 20.9633 15.6564 20.567 15.7955V9.40473C20.5666 8.50524 20.2092 7.64262 19.5732 7.0064C18.937 6.37038 18.0744 6.01299 17.1749 6.0126H4.77323C4.91236 5.61622 5.17112 5.27263 5.51373 5.02961C5.85654 4.78675 6.26615 4.65595 6.68639 4.65576H19.8886H19.8884C20.4277 4.65728 20.9444 4.87232 21.3259 5.25355C21.7071 5.63498 21.9221 6.15174 21.9237 6.69104L21.9238 6.69103Z" fill="#93A2C1"/>
</svg>
