<svg width="24" height="24" viewBox="0 0 24 24" fill="none" xmlns="http://www.w3.org/2000/svg">
<path d="M7.66406 12.3438C9.32031 12.3438 10.3281 11.125 10.3281 9.17188V9.16406C10.3281 7.21094 9.32031 6 7.66406 6C6.01562 6 5 7.21094 5 9.16406V9.17188C5 11.125 6.01562 12.3438 7.66406 12.3438ZM9.39844 17.4375L16.9844 6.16406H15.1797L7.59375 17.4375H9.39844ZM7.66406 11.0938C6.98438 11.0938 6.60156 10.3984 6.60156 9.17188V9.16406C6.60156 7.92969 6.98438 7.25 7.66406 7.25C8.35156 7.25 8.73438 7.92969 8.73438 9.16406V9.17188C8.73438 10.3984 8.35156 11.0938 7.66406 11.0938ZM16.9062 17.6016C18.5625 17.6016 19.5703 16.3828 19.5703 14.4297V14.4219C19.5703 12.4688 18.5625 11.2578 16.9062 11.2578C15.2578 11.2578 14.2422 12.4688 14.2422 14.4219V14.4297C14.2422 16.3828 15.2578 17.6016 16.9062 17.6016ZM16.9062 16.3516C16.2266 16.3516 15.8438 15.6562 15.8438 14.4297V14.4219C15.8438 13.1875 16.2266 12.5078 16.9062 12.5078C17.5938 12.5078 17.9766 13.1875 17.9766 14.4219V14.4297C17.9766 15.6562 17.5938 16.3516 16.9062 16.3516Z" fill="black"/>
</svg>
