<svg width="24" height="24" viewBox="0 0 24 24" fill="none" xmlns="http://www.w3.org/2000/svg">
<g clip-path="url(#clip0_44323_8415)">
<path d="M11.9946 4C15.8345 4 19 6.97431 19 10.6542C19 12.5086 18.3058 14.2301 17.1631 15.6893C15.9025 17.2988 14.3488 18.7012 12.6 19.8019C12.1997 20.0563 11.8385 20.0755 11.3992 19.8019C9.64037 18.7012 8.08666 17.2988 6.83688 15.6893C5.6934 14.2301 5 12.5086 5 10.6542C5 6.97431 8.16555 4 11.9946 4ZM11.9946 8.62147C10.7249 8.62147 9.68936 9.63824 9.68936 10.8614C9.68936 12.0942 10.7249 13.0637 11.9946 13.0637C13.2651 13.0637 14.3106 12.0942 14.3106 10.8614C14.3106 9.63824 13.2651 8.62147 11.9946 8.62147Z" stroke="#99969B" stroke-width="2"/>
</g>
<defs>
<clipPath id="clip0_44323_8415">
<rect width="24" height="24" fill="white"/>
</clipPath>
</defs>
</svg>
