<svg width="24" height="24" viewBox="0 0 24 24" fill="none" xmlns="http://www.w3.org/2000/svg">
<path d="M12.1299 12.4149C14.8125 12.4149 16.9942 9.46437 16.9942 6.68459C16.9942 3.90457 14.8125 1.64258 12.1299 1.64258C9.44774 1.64258 7.26562 3.90434 7.26562 6.68435C7.26585 9.46437 9.44796 12.4149 12.1299 12.4149Z" fill="#444245"/>
<path d="M15.7864 12.4141C14.8426 13.1591 13.6655 13.6026 12.3904 13.6026H11.8784C10.6033 13.6026 9.42597 13.1591 8.48241 12.4141C5.40149 12.9302 3.04883 15.698 3.04883 19.0364C3.04883 20.8704 7.1165 22.3573 12.1344 22.3573C17.1523 22.3573 21.22 20.8704 21.22 19.0364C21.22 15.698 18.8671 12.9302 15.7864 12.4141Z" fill="#444245"/>
</svg>
