<svg width="24" height="24" viewBox="0 0 24 24" fill="none" xmlns="http://www.w3.org/2000/svg">
<rect width="24" height="24" fill="white"/>
<path fill-rule="evenodd" clip-rule="evenodd" d="M6.72677 3.00053C6.48193 3.02058 6.28766 3.22012 6.26815 3.47137C6.24879 3.72264 6.40993 3.95119 6.64866 4.01075L15.672 6.63259H3.48433C2.111 6.63259 1 7.80819 1 9.23024V18.4024C1 19.8224 2.11033 21 3.48433 21H20.5078C21.8818 21 23 19.8224 23 18.4024V9.23024C23 7.80819 21.8811 6.63259 20.5078 6.63259H19.3438V6.63241C19.3335 6.62686 19.3232 6.62149 19.3126 6.61648L6.92174 3.0247C6.87378 3.00895 6.82373 3.00089 6.77333 3.00054C6.75764 2.99982 6.74212 2.99982 6.72642 3.00054L6.72677 3.00053ZM14.555 9.67116C15.1002 9.67116 15.5549 10.1356 15.5549 10.6973C15.5549 11.2591 15.1036 11.7235 14.555 11.7235C14.0064 11.7235 13.5551 11.2591 13.5551 10.6973C13.5551 10.1355 14.0099 9.67116 14.555 9.67116ZM16.7426 9.67116C17.2877 9.67116 17.7425 10.1356 17.7425 10.6973C17.7425 11.2591 17.2912 11.7235 16.7426 11.7235C16.1939 11.7235 15.7426 11.2591 15.7426 10.6973C15.7426 10.1355 16.1975 9.67116 16.7426 9.67116ZM18.9301 9.67116C19.4752 9.67116 19.93 10.1356 19.93 10.6973C19.93 11.2591 19.4787 11.7235 18.9301 11.7235C18.3815 11.7235 17.9302 11.2591 17.9302 10.6973C17.9302 10.1355 18.385 9.67116 18.9301 9.67116ZM8.20358 10.3847C9.99352 10.3847 11.4537 11.891 11.4537 13.7279C11.4537 15.5628 9.99352 17.0552 8.20358 17.0552C6.41574 17.0552 4.95348 15.5628 4.95348 13.7279C4.95348 11.891 6.41574 10.3847 8.20358 10.3847ZM13.8834 13.1026C13.8989 13.1019 13.9146 13.1019 13.9303 13.1026H19.3367H19.3365C19.4704 13.1006 19.5993 13.1538 19.6947 13.2502C19.7901 13.3467 19.8436 13.4782 19.8436 13.6157C19.8436 13.7531 19.7901 13.8847 19.6947 13.9811C19.5993 14.0776 19.4704 14.1307 19.3365 14.1288H13.9301H13.9303C13.6541 14.142 13.4199 13.9231 13.407 13.6397C13.3939 13.3564 13.6073 13.1158 13.8834 13.1026ZM13.8834 15.5238C13.8989 15.5231 13.9146 15.5231 13.9303 15.5238H19.3367H19.3365C19.4704 15.522 19.5993 15.5752 19.6947 15.6716C19.7901 15.7681 19.8436 15.8996 19.8436 16.0371C19.8436 16.1744 19.7901 16.3061 19.6947 16.4024C19.5993 16.4988 19.4704 16.5521 19.3365 16.5502H13.9301H13.9303C13.7976 16.5566 13.6679 16.5087 13.5697 16.4168C13.4715 16.3252 13.4129 16.1973 13.4066 16.0611C13.4005 15.9249 13.4473 15.7919 13.5366 15.6912C13.626 15.5904 13.7507 15.5303 13.8834 15.5238Z" fill="black"/>
</svg>
