<svg width="20" height="20" viewBox="0 0 20 20" fill="none" xmlns="http://www.w3.org/2000/svg">
<path d="M10.5897 6.66129C10.7582 6.8351 10.9686 6.92193 11.1792 6.92193C11.3898 6.92193 11.6002 6.8351 11.7687 6.66129C12.0844 6.33549 12.0844 5.79239 11.7687 5.44476L10.6739 4.31506H16.1476V10.9627C16.1476 11.4406 16.5264 11.81 16.9686 11.81C17.4318 11.81 17.7897 11.419 17.7897 10.9627V3.44608C17.7897 2.96815 17.4108 2.59883 16.9686 2.59883H10.6529L11.7476 1.46913C12.0634 1.14332 12.0634 0.60023 11.7476 0.252602C11.4319 -0.0950229 10.9056 -0.0732016 10.5687 0.252602L8.08445 2.85964C7.76872 3.18545 7.76872 3.72854 8.08445 4.07617L10.5897 6.66129Z" fill="black"/>
<path d="M6.02107 5.37933V1.53423C6.02107 0.882465 5.49475 0.339355 4.86314 0.339355H1.15793C0.526314 0.339355 0 0.882465 0 1.53423V5.37949C0 6.03125 0.526314 6.57436 1.15793 6.57436H4.88427C5.51573 6.57421 6.02103 6.0311 6.02103 5.37933H6.02107Z" fill="black"/>
<path d="M9.41084 13.3523C9.09511 13.0265 8.56881 13.0265 8.23193 13.3523C7.89505 13.6781 7.9162 14.2212 8.23193 14.5688L9.3267 15.6985H3.85304V9.05086C3.85304 8.57293 3.47417 8.20361 3.03199 8.20361C2.58981 8.20361 2.21094 8.59457 2.21094 9.05086V16.5458C2.21094 17.0237 2.58981 17.393 3.03199 17.393H9.34775L8.25298 18.5227C7.93725 18.8485 7.93725 19.3916 8.25298 19.7392C8.42142 19.9131 8.63185 19.9999 8.84245 19.9999C9.05304 19.9999 9.26347 19.9131 9.43193 19.7392L11.9372 17.154C12.2529 16.8282 12.2529 16.2851 11.9372 15.9375L9.41084 13.3523Z" fill="black"/>
<path d="M18.8417 13.4395H15.1364C14.5048 13.4395 13.9785 13.9826 13.9785 14.6343V18.4794C13.9785 19.1312 14.5048 19.6743 15.1364 19.6743H18.8417C19.4733 19.6743 19.9996 19.1312 19.9996 18.4794V14.6343C19.9996 13.9826 19.4733 13.4395 18.8417 13.4395V13.4395Z" fill="black"/>
</svg>
