<svg width="68" height="69" viewBox="0 0 68 69" fill="none" xmlns="http://www.w3.org/2000/svg">
<path d="M43.5932 35.0728C41.2432 36.928 38.3122 38.0323 35.1373 38.0323H33.8623C30.6874 38.0323 27.7558 36.928 25.4064 35.0728C17.735 36.358 11.877 43.2497 11.877 51.5623C11.877 56.1288 22.0053 59.8312 34.4998 59.8312C46.9942 59.8312 57.1226 56.1288 57.1226 51.5623C57.1226 43.2497 51.264 36.358 43.5932 35.0728Z" fill="#EAEAEA"/>
<path fill-rule="evenodd" clip-rule="evenodd" d="M43.9425 36.5633C41.4506 38.3665 38.4132 39.4323 35.1373 39.4323H33.8623C30.5865 39.4323 27.5486 38.3666 25.057 36.5634C18.3682 37.9742 13.277 44.1227 13.277 51.5623C13.277 52.1453 13.5957 52.8795 14.5701 53.7215C15.5405 54.5601 17.0262 55.3788 18.9836 56.0943C22.887 57.5211 28.3726 58.4312 34.4998 58.4312C40.627 58.4312 46.1125 57.5211 50.016 56.0943C51.9734 55.3788 53.4591 54.5601 54.4294 53.7215C55.4038 52.8795 55.7226 52.1453 55.7226 51.5623C55.7226 44.1227 50.6309 37.9741 43.9425 36.5633ZM43.5932 35.0728C41.2432 36.928 38.3122 38.0323 35.1373 38.0323H33.8623C30.6874 38.0323 27.7558 36.928 25.4064 35.0728C17.735 36.358 11.877 43.2497 11.877 51.5623C11.877 56.1288 22.0053 59.8312 34.4998 59.8312C46.9942 59.8312 57.1226 56.1288 57.1226 51.5623C57.1226 43.2497 51.264 36.358 43.5932 35.0728Z" fill="#BEBEBE"/>
<path d="M34.1119 35.0728C40.7916 35.0728 46.2239 27.726 46.2239 20.8045C46.2239 13.8823 40.7916 8.25 34.1119 8.25C27.4334 8.25 22 13.8817 22 20.8039C22.0006 27.726 27.434 35.0728 34.1119 35.0728Z" fill="#EAEAEA"/>
<path fill-rule="evenodd" clip-rule="evenodd" d="M34.1119 35.0728C40.7916 35.0728 46.2239 27.726 46.2239 20.8045C46.2239 13.8823 40.7916 8.25 34.1119 8.25C27.4334 8.25 22 13.8817 22 20.8039C22.0006 27.726 27.434 35.0728 34.1119 35.0728ZM44.8239 20.8045C44.8239 23.9191 43.5925 27.1795 41.5858 29.6519C39.5778 32.1258 36.9166 33.6728 34.1119 33.6728C31.3082 33.6728 28.6471 32.1259 26.6389 29.6518C24.632 27.1793 23.4003 23.9187 23.4 20.8038C23.4001 14.6071 28.2535 9.65 34.1119 9.65C39.9713 9.65 44.8239 14.6076 44.8239 20.8045Z" fill="#BEBEBE"/>
<circle cx="56" cy="52.25" r="11.3" fill="white" stroke="#BEBEBE" stroke-width="1.4"/>
<path d="M56 46.25C55.5858 46.25 55.25 46.5858 55.25 47V51.5H50.75C50.3358 51.5 50 51.8358 50 52.25C50 52.6642 50.3358 53 50.75 53H55.25V57.5C55.25 57.9142 55.5858 58.25 56 58.25C56.4142 58.25 56.75 57.9142 56.75 57.5V53H61.25C61.6642 53 62 52.6642 62 52.25C62 51.8358 61.6642 51.5 61.25 51.5H56.75V47C56.75 46.5858 56.4142 46.25 56 46.25Z" fill="#BEBEBE"/>
<path d="M68 52.25C68 58.8774 62.6274 64.25 56 64.25C49.3726 64.25 44 58.8774 44 52.25C44 45.6226 49.3726 40.25 56 40.25C62.6274 40.25 68 45.6226 68 52.25Z" fill="white"/>
<path fill-rule="evenodd" clip-rule="evenodd" d="M56 62.85C61.8542 62.85 66.6 58.1042 66.6 52.25C66.6 46.3958 61.8542 41.65 56 41.65C50.1458 41.65 45.4 46.3958 45.4 52.25C45.4 58.1042 50.1458 62.85 56 62.85ZM56 64.25C62.6274 64.25 68 58.8774 68 52.25C68 45.6226 62.6274 40.25 56 40.25C49.3726 40.25 44 45.6226 44 52.25C44 58.8774 49.3726 64.25 56 64.25Z" fill="#BEBEBE"/>
<path d="M56 46.25C55.5858 46.25 55.25 46.5858 55.25 47V51.5H50.75C50.3358 51.5 50 51.8358 50 52.25C50 52.6642 50.3358 53 50.75 53H55.25V57.5C55.25 57.9142 55.5858 58.25 56 58.25C56.4142 58.25 56.75 57.9142 56.75 57.5V53H61.25C61.6642 53 62 52.6642 62 52.25C62 51.8358 61.6642 51.5 61.25 51.5H56.75V47C56.75 46.5858 56.4142 46.25 56 46.25Z" fill="#BEBEBE"/>
</svg>
