<svg width="24" height="24" viewBox="0 0 24 24" fill="none" xmlns="http://www.w3.org/2000/svg">
<path d="M18.5321 11.2413H5.45062C4.28224 11.2413 3.20243 10.6575 2.61844 9.71014C2.03407 8.7628 2.03407 7.59556 2.61844 6.64786C3.20243 5.70052 4.28224 5.11708 5.45062 5.11708H20.2598L18.8481 6.43889C18.4218 6.8376 18.4218 7.4841 18.8481 7.88318C19.2739 8.28189 19.9644 8.28189 20.3906 7.88318L23.6611 4.82089L23.7212 4.75468H23.7208C23.7478 4.72691 23.7733 4.69808 23.7973 4.66782C23.7973 4.64218 23.83 4.61157 23.8463 4.58629C23.8665 4.55497 23.8843 4.52257 23.9007 4.48911V4.41755V4.41791C23.9311 4.37875 23.9585 4.33781 23.9824 4.29544V4.25985V4.25949C24.0482 3.92806 23.9269 3.58844 23.6608 3.36132L20.3902 0.299033H20.3906C19.9644 -0.0996778 19.2739 -0.0996778 18.8481 0.299033C18.4218 0.6981 18.4218 1.34461 18.8481 1.74369L20.2598 3.07543H5.45062C3.50319 3.07543 1.70371 4.04838 0.729994 5.62718C-0.243331 7.20635 -0.243331 9.15188 0.729994 10.7307C1.70371 12.3099 3.50319 13.2824 5.45062 13.2824H18.5321C19.7005 13.2824 20.7803 13.8663 21.3643 14.8136C21.9487 15.7609 21.9487 16.9282 21.3643 17.8759C20.7803 18.8232 19.7005 19.4066 18.5321 19.4066H7.47319C7.12112 18.3009 6.22042 17.4227 5.05506 17.0482C3.88931 16.674 2.60238 16.8499 1.59937 17.5202C0.596746 18.1909 0.00136339 19.2735 0.00136339 20.4276C0.00136339 21.5813 0.596766 22.6639 1.59937 23.3346C2.60238 24.0053 3.88931 24.1811 5.05506 23.8066C6.22042 23.4321 7.12114 22.5539 7.47319 21.4482H18.5321C20.4795 21.4482 22.279 20.4752 23.2527 18.8964C24.2261 17.3172 24.2261 15.3717 23.2527 13.7929C22.279 12.2137 20.4795 11.2412 18.5321 11.2412L18.5321 11.2413ZM3.81544 21.9586C3.38162 21.9586 2.96567 21.7974 2.65922 21.5104C2.3524 21.2232 2.18016 20.8337 2.18016 20.4279C2.18016 20.0217 2.35239 19.6322 2.65922 19.3449C2.96566 19.058 3.38161 18.8967 3.81544 18.8967C4.24926 18.8967 4.6652 19.058 4.97165 19.3449C5.27847 19.6322 5.45071 20.0217 5.45071 20.4279C5.45071 20.8337 5.27848 21.2232 4.97165 21.5104C4.66521 21.7974 4.24926 21.9586 3.81544 21.9586Z" fill="white"/>
</svg>
