<svg width="24" height="24" viewBox="0 0 24 24" fill="none" xmlns="http://www.w3.org/2000/svg">
<path d="M22.6666 8.88888C22.3131 8.88888 21.9738 8.74841 21.7238 8.4984C21.4739 8.2484 21.3333 7.9091 21.3333 7.55557V3.11113C21.3333 2.99328 21.2865 2.88018 21.2032 2.79685C21.1198 2.71352 21.0067 2.66669 20.8889 2.66669H16.4445C15.9681 2.66669 15.528 2.41252 15.2897 2.00002C15.0516 1.58752 15.0516 1.07919 15.2897 0.666691C15.528 0.254191 15.9681 2.53828e-05 16.4445 2.53828e-05H20.8889C21.7141 2.53828e-05 22.5053 0.327802 23.0887 0.911313C23.6722 1.49463 24 2.28589 24 3.11113V7.55557C24 7.90914 23.8595 8.24845 23.6095 8.4984C23.3595 8.74836 23.0202 8.88888 22.6666 8.88888ZM2.66666 7.55555V3.11111C2.66666 2.86567 2.86567 2.66666 3.11111 2.66666H7.55555C8.03194 2.66666 8.47202 2.4125 8.71029 2C8.94839 1.5875 8.94839 1.07916 8.71029 0.666666C8.472 0.254166 8.03194 0 7.55555 0H3.11111C2.28592 0 1.49465 0.327776 0.911288 0.911288C0.327771 1.4946 0 2.28586 0 3.11111V7.55555C0 8.03194 0.254166 8.47202 0.666666 8.71029C1.07917 8.94838 1.5875 8.94838 2 8.71029C2.4125 8.472 2.66666 8.03194 2.66666 7.55555ZM8.88888 22.6666C8.88888 22.3131 8.74841 21.9738 8.4984 21.7238C8.2484 21.4739 7.9091 21.3333 7.55557 21.3333H3.11113C2.8657 21.3333 2.66669 21.1343 2.66669 20.8889V16.4445C2.66669 15.9681 2.41252 15.528 2.00002 15.2897C1.58752 15.0516 1.07919 15.0516 0.666692 15.2897C0.254192 15.528 2.55766e-05 15.9681 2.55766e-05 16.4445V20.8889C2.55766e-05 21.7141 0.327801 22.5053 0.911313 23.0887C1.49463 23.6722 2.28589 24 3.11113 24H7.55557C7.90914 24 8.24845 23.8595 8.4984 23.6095C8.74836 23.3595 8.88888 23.0202 8.88888 22.6667V22.6666ZM24 20.8889V16.4444C24 15.968 23.7458 15.528 23.3333 15.2897C22.9208 15.0516 22.4125 15.0516 22 15.2897C21.5875 15.528 21.3333 15.968 21.3333 16.4444V20.8889C21.3333 21.0067 21.2865 21.1198 21.2032 21.2032C21.1198 21.2865 21.0067 21.3333 20.8889 21.3333H16.4444C15.968 21.3333 15.528 21.5875 15.2897 22C15.0516 22.4125 15.0516 22.9208 15.2897 23.3333C15.528 23.7458 15.968 24 16.4444 24H20.8889C21.7141 24 22.5053 23.6722 23.0887 23.0887C23.6722 22.5054 24 21.7141 24 20.8889ZM24 12C24 11.6464 23.8595 11.3071 23.6095 11.0572C23.3595 10.8072 23.0202 10.6667 22.6667 10.6667H1.33336C0.856969 10.6667 0.416889 10.9208 0.178616 11.3333C-0.0594792 11.7458 -0.0594792 12.2542 0.178616 12.6667C0.416909 13.0792 0.856964 13.3333 1.33336 13.3333H22.6667C23.0202 13.3333 23.3595 13.1929 23.6095 12.9429C23.8595 12.6929 24 12.3536 24 12V12Z" fill="black"/>
</svg>
