<svg width="68" height="68" viewBox="0 0 68 68" fill="none" xmlns="http://www.w3.org/2000/svg">
<circle cx="46" cy="43" r="11" fill="#EAEAEA"/>
<path d="M16.3531 13.0002C16.1337 13.0009 15.9235 13.0883 15.7691 13.2423C15.6147 13.3967 15.5282 13.6055 15.529 13.8228V15.3112H13.0853C12.5279 15.3112 12.0033 15.4623 11.5501 15.7224H10.8308V16.289C10.3166 16.8354 10 17.567 10 18.3663V45.6624C10 47.3391 11.3923 48.7155 13.0853 48.7155H35.3564C37.3915 52.4546 41.3811 55 45.9595 55C52.5985 55 58 49.6489 58 43.0665C58 37.0699 53.5172 32.0919 47.7005 31.2528V18.3661C47.7005 16.6894 46.3096 15.3111 44.617 15.3111H42.1734V13.8227C42.1745 13.6043 42.0873 13.3943 41.931 13.24C41.7752 13.0856 41.5635 12.9993 41.3429 13C41.1235 13.0007 40.9133 13.0882 40.7585 13.2422C40.6041 13.3965 40.5177 13.6054 40.5184 13.8227V15.3111H33.842V13.8227C33.8431 13.605 33.7563 13.3961 33.6015 13.2418C33.4464 13.0874 33.2358 13.0004 33.0164 13C32.7958 12.9993 32.5838 13.0856 32.4279 13.24C32.272 13.3943 32.1848 13.6043 32.1856 13.8227V15.3111H25.5155V13.8227C25.5166 13.6043 25.4291 13.3943 25.2732 13.24C25.1173 13.0856 24.9056 12.9993 24.6851 13C24.4653 13.0007 24.2554 13.0882 24.1007 13.2422C23.9462 13.3965 23.8598 13.6054 23.8605 13.8227V15.3111H17.1841V13.8227C17.1849 13.6043 17.0977 13.3943 16.9418 13.24C16.7859 13.0856 16.5743 12.9993 16.3533 13L16.3531 13.0002ZM13.0853 16.9495H15.5289V18.438C15.5308 18.8882 15.8987 19.2525 16.3531 19.2544C16.5725 19.2551 16.7835 19.1695 16.9394 19.0166C17.0952 18.8634 17.1832 18.6552 17.1839 18.438V16.9495H23.8603V18.438C23.8621 18.8882 24.2301 19.2525 24.6848 19.2544C24.9043 19.2551 25.1148 19.1695 25.2707 19.0166C25.4266 18.8634 25.5145 18.6552 25.5153 18.438V16.9495H32.1853V18.438C32.1861 18.6552 32.274 18.8634 32.4299 19.0166C32.5857 19.1695 32.7967 19.2551 33.0161 19.2544C33.4712 19.2533 33.8399 18.8886 33.8417 18.438V16.9495H40.5181V18.438C40.52 18.8882 40.8879 19.2525 41.3427 19.2544C41.5621 19.2551 41.7727 19.1695 41.9286 19.0166C42.0844 18.8634 42.1724 18.6552 42.1731 18.438V16.9495H44.6168C45.4199 16.9495 46.0452 17.567 46.0452 18.3659V22.2914H11.6552V18.3659C11.6552 17.567 12.2824 16.9495 13.0855 16.9495H13.0853ZM11.6549 23.9301H46.0459V31.1284C46.0175 31.128 45.9891 31.1269 45.9602 31.1269C39.3212 31.1269 33.9216 36.4841 33.9216 43.067C33.9216 44.4734 34.1672 45.8235 34.6198 47.0774L13.0854 47.077C12.2823 47.077 11.6551 46.461 11.6551 45.6626L11.6549 23.9301ZM17.1643 27.4925H17.1647C16.9453 27.4918 16.7343 27.5774 16.5784 27.7303C16.4226 27.8831 16.3346 28.0913 16.3339 28.3086C16.3332 28.5269 16.4203 28.7369 16.5762 28.8913C16.7321 29.0456 16.9442 29.1319 17.1647 29.1312H20.0432C20.2637 29.1319 20.4754 29.0456 20.6313 28.8913C20.7872 28.7369 20.8748 28.5269 20.8736 28.3086C20.8729 28.0913 20.785 27.8831 20.6291 27.7303C20.4732 27.5774 20.2626 27.4918 20.0432 27.4925H17.1643ZM27.409 27.4925H27.4094C26.9543 27.4932 26.5852 27.8579 26.5834 28.3085C26.5826 28.5262 26.6691 28.7354 26.8242 28.8894C26.979 29.0438 27.1896 29.1308 27.4094 29.1312H30.2926C30.512 29.1305 30.7222 29.0434 30.8766 28.889C31.0314 28.7347 31.1175 28.5258 31.1168 28.3085C31.1149 27.8586 30.747 27.4943 30.2926 27.4925H27.409ZM37.6584 27.4925H37.6588C37.4394 27.4918 37.2284 27.5774 37.0729 27.7303C36.917 27.8831 36.8291 28.0913 36.828 28.3086C36.8272 28.5269 36.9144 28.7369 37.0703 28.8913C37.2266 29.0456 37.4383 29.1319 37.6588 29.1312H40.5358C40.7563 29.1319 40.968 29.0456 41.1239 28.8913C41.2798 28.7369 41.3673 28.5269 41.3662 28.3086C41.3655 28.0913 41.2776 27.8831 41.1217 27.7303C40.9658 27.5774 40.7552 27.4918 40.5358 27.4925H37.6584ZM45.959 32.7671C51.7022 32.7671 56.3427 37.3683 56.3427 43.0665C56.3427 48.765 51.7022 53.3613 45.959 53.3613C41.8856 53.3613 38.368 51.0485 36.6661 47.6708H36.6665C36.6406 47.5816 36.5996 47.4971 36.5453 47.4214C35.924 46.0998 35.5756 44.6246 35.5756 43.0671C35.5756 37.3686 40.2161 32.7676 45.9593 32.7676L45.959 32.7671ZM17.1637 34.6168L17.164 34.6172C16.9446 34.6161 16.7337 34.7017 16.5778 34.8546C16.4219 35.0078 16.334 35.216 16.3332 35.4333C16.3318 35.652 16.4189 35.862 16.5748 36.0167C16.7311 36.1718 16.9431 36.2581 17.1641 36.2574H20.0425C20.2631 36.2581 20.4751 36.1718 20.6314 36.0167C20.7873 35.862 20.8745 35.652 20.873 35.4333C20.8722 35.216 20.7843 35.0078 20.6284 34.8546C20.4726 34.7017 20.262 34.6161 20.0426 34.6172L17.1637 34.6168ZM27.4083 34.6168L27.4087 34.6172C26.9536 34.6179 26.5846 34.9826 26.5827 35.4332C26.5816 35.6509 26.668 35.8605 26.8228 36.0152C26.978 36.1696 27.1886 36.257 27.4087 36.2573H30.2919C30.5117 36.2566 30.7219 36.1692 30.8767 36.0145C31.0311 35.8597 31.1172 35.6509 31.1161 35.4332C31.1142 34.9833 30.7463 34.6186 30.2919 34.6172L27.4083 34.6168ZM45.6356 36.7771L45.636 36.7775C45.1816 36.7793 44.8137 37.1436 44.8118 37.5935V44.5485C44.81 45.0009 45.179 45.3693 45.636 45.3711H49.93C50.1509 45.3718 50.3626 45.2855 50.5185 45.1312C50.6744 44.9764 50.7615 44.7668 50.7608 44.5485C50.7601 44.3312 50.6721 44.1231 50.5163 43.9698C50.3604 43.8169 50.1494 43.7313 49.93 43.7324H46.4668V37.5934C46.4657 37.3762 46.3777 37.168 46.2219 37.0151C46.0663 36.8619 45.8554 36.7766 45.636 36.7774L45.6356 36.7771ZM17.1637 41.7429C16.9442 41.7422 16.7333 41.8278 16.5774 41.9807C16.4215 42.134 16.3336 42.3421 16.3329 42.5594C16.3321 42.7777 16.4193 42.9873 16.5752 43.1417C16.7311 43.2964 16.9431 43.3827 17.1637 43.3817H20.0422C20.2627 43.3827 20.4744 43.2964 20.6303 43.1417C20.7862 42.9873 20.8737 42.7777 20.8726 42.5594C20.8719 42.3421 20.784 42.134 20.6281 41.9807C20.4722 41.8278 20.2616 41.7422 20.0422 41.7429H17.1637ZM27.4083 41.7429C26.9532 41.744 26.5842 42.1087 26.5823 42.5594C26.5816 42.777 26.668 42.9859 26.8232 43.1402C26.978 43.2946 27.1885 43.3813 27.4083 43.3816H30.2916C30.511 43.3809 30.7212 43.2939 30.8756 43.1395C31.0304 42.9851 31.1165 42.7766 31.1157 42.5594C31.1139 42.1091 30.746 41.7448 30.2916 41.7429H27.4083Z" fill="#BEBEBE"/>
</svg>
