<svg width="68" height="69" viewBox="0 0 68 69" fill="none" xmlns="http://www.w3.org/2000/svg">
<g clip-path="url(#clip0_44323_8370)">
<path d="M60.4262 51.5472L50.2714 41.3834C47.4723 43.2077 44.1199 44.2501 40.5071 44.0547C32.7934 43.6963 26.1862 37.6698 25.1447 30.0144C23.7126 19.1015 33.1188 9.88248 44.1199 11.7393C50.4667 12.8143 55.7394 17.7659 57.1389 24.053C58.213 28.8091 57.1715 33.2395 54.8606 36.7577L65.048 46.9539C66.3173 48.2244 66.3173 50.2767 65.048 51.5472C63.7786 52.8176 61.6956 52.8176 60.4262 51.5472ZM51.0525 27.7993C51.0525 22.4242 46.6586 18.0265 41.2883 18.0265C35.9179 18.0265 31.524 22.4242 31.524 27.7993C31.524 33.1743 35.9179 37.5721 41.2883 37.5721C46.6586 37.5721 51.0525 33.1743 51.0525 27.7993Z" fill="white"/>
<path fill-rule="evenodd" clip-rule="evenodd" d="M23.7574 30.2034L23.7565 30.1968C22.2029 18.3582 32.4157 8.34424 44.3528 10.3591L44.3536 10.3592C51.2538 11.5279 56.9796 16.8983 58.505 23.7473C59.5698 28.4655 58.7095 32.9035 56.6302 36.5483L66.0382 45.9646C67.8538 47.7817 67.8538 50.7198 66.0382 52.5369C64.2221 54.3547 61.2519 54.3547 59.4357 52.5369L50.0587 43.1517C47.2411 44.7519 43.9561 45.6425 40.4364 45.4531C32.0522 45.0609 24.89 38.5284 23.7574 30.2034ZM50.2713 41.3837L60.4261 51.5474C61.6955 52.8178 63.7785 52.8178 65.0479 51.5474C66.3172 50.2769 66.3172 48.2246 65.0479 46.9542L54.8605 36.7579C57.1714 33.2397 58.2129 28.8093 57.1388 24.0533C55.7393 17.7661 50.4666 12.8145 44.1198 11.7395C33.1187 9.8827 23.7125 19.1017 25.1446 30.0147C26.1861 37.67 32.7933 43.6966 40.507 44.0549C44.1198 44.2504 47.4722 43.2079 50.2713 41.3837ZM49.6524 27.7995C49.6524 23.1965 45.8842 19.4267 41.2882 19.4267C36.6922 19.4267 32.9239 23.1965 32.9239 27.7995C32.9239 32.4025 36.6922 36.1723 41.2882 36.1723C45.8842 36.1723 49.6524 32.4025 49.6524 27.7995ZM41.2882 18.0267C46.6585 18.0267 51.0524 22.4245 51.0524 27.7995C51.0524 33.1745 46.6585 37.5723 41.2882 37.5723C35.9178 37.5723 31.5239 33.1745 31.5239 27.7995C31.5239 22.4245 35.9178 18.0267 41.2882 18.0267Z" fill="#BEBEBE"/>
<path d="M14.2 24.1667H4.3C2.485 24.1667 1 22.6667 1 20.8333C1 19 2.485 17.5 4.3 17.5H14.2C16.015 17.5 17.5 19 17.5 20.8333C17.5 22.6667 16.015 24.1667 14.2 24.1667ZM14.2 34.1667H4.3C2.485 34.1667 1 35.6667 1 37.5C1 39.3333 2.485 40.8333 4.3 40.8333H14.2C16.015 40.8333 17.5 39.3333 17.5 37.5C17.5 35.6667 16.015 34.1667 14.2 34.1667ZM4.3 57.5H30.7C32.515 57.5 34 56 34 54.1667C34 52.3333 32.515 50.8333 30.7 50.8333H4.3C2.485 50.8333 1 52.3333 1 54.1667C1 56 2.485 57.5 4.3 57.5Z" fill="#EAEAEA"/>
<path fill-rule="evenodd" clip-rule="evenodd" d="M4.30078 18.2003C2.879 18.2003 1.70078 19.3802 1.70078 20.8336C1.70078 22.287 2.879 23.467 4.30078 23.467H14.2008C15.6226 23.467 16.8008 22.287 16.8008 20.8336C16.8008 19.3802 15.6226 18.2003 14.2008 18.2003H4.30078ZM0.300781 20.8336C0.300781 18.6203 2.09257 16.8003 4.30078 16.8003H14.2008C16.409 16.8003 18.2008 18.6203 18.2008 20.8336C18.2008 23.0469 16.409 24.867 14.2008 24.867H4.30078C2.09257 24.867 0.300781 23.0469 0.300781 20.8336ZM0.300781 37.5003C0.300781 35.287 2.09257 33.467 4.30078 33.467H14.2008C16.409 33.467 18.2008 35.287 18.2008 37.5003C18.2008 39.7136 16.409 41.5336 14.2008 41.5336H4.30078C2.09257 41.5336 0.300781 39.7136 0.300781 37.5003ZM4.30078 34.867C2.879 34.867 1.70078 36.0469 1.70078 37.5003C1.70078 38.9537 2.879 40.1336 4.30078 40.1336H14.2008C15.6226 40.1336 16.8008 38.9537 16.8008 37.5003C16.8008 36.0469 15.6226 34.867 14.2008 34.867H4.30078ZM0.300781 54.167C0.300781 51.9537 2.09257 50.1336 4.30078 50.1336H30.7008C32.909 50.1336 34.7008 51.9537 34.7008 54.167C34.7008 56.3802 32.909 58.2003 30.7008 58.2003H4.30078C2.09257 58.2003 0.300781 56.3802 0.300781 54.167ZM4.30078 51.5336C2.879 51.5336 1.70078 52.7136 1.70078 54.167C1.70078 55.6203 2.879 56.8003 4.30078 56.8003H30.7008C32.1226 56.8003 33.3008 55.6203 33.3008 54.167C33.3008 52.7136 32.1226 51.5336 30.7008 51.5336H4.30078Z" fill="#BEBEBE"/>
</g>
<defs>
<clipPath id="clip0_44323_8370">
<rect width="68" height="68" fill="white" transform="translate(0 0.5)"/>
</clipPath>
</defs>
</svg>
