<svg width="24" height="24" viewBox="0 0 24 24" fill="none" xmlns="http://www.w3.org/2000/svg">
<path d="M18.9421 12C18.9421 11.793 18.9328 11.595 18.9143 11.388L20.636 10.119C21.0062 9.849 21.108 9.345 20.8766 8.949L19.1457 6.042C18.9143 5.646 18.4145 5.484 17.9887 5.664L15.9986 6.483C15.6562 6.249 15.2952 6.042 14.9157 5.871L14.6472 3.792C14.5917 3.342 14.1937 3 13.7309 3H10.2784C9.8063 3 9.40829 3.342 9.35275 3.792L9.08432 5.871C8.70482 6.042 8.34383 6.249 8.00136 6.483L6.01129 5.664C5.58551 5.484 5.08568 5.646 4.85428 6.042L3.12338 8.958C2.89198 9.354 2.9938 9.849 3.36404 10.128L5.08568 11.397C5.06717 11.595 5.05791 11.793 5.05791 12C5.05791 12.207 5.06717 12.405 5.08568 12.612L3.36404 13.881C2.9938 14.151 2.89198 14.655 3.12338 15.051L4.85428 17.958C5.08568 18.354 5.58551 18.516 6.01129 18.336L8.00136 17.517C8.34383 17.751 8.70482 17.958 9.08432 18.129L9.35275 20.208C9.40829 20.658 9.8063 21 10.2691 21H13.7216C14.1844 21 14.5825 20.658 14.638 20.208L14.9064 18.129C15.2859 17.958 15.6469 17.751 15.9894 17.517L17.9795 18.336C18.4052 18.516 18.9051 18.354 19.1365 17.958L20.8674 15.051C21.0988 14.655 20.9969 14.16 20.6267 13.881L18.9051 12.612C18.9328 12.405 18.9421 12.207 18.9421 12ZM12.037 15.15C10.2506 15.15 8.79738 13.737 8.79738 12C8.79738 10.263 10.2506 8.85 12.037 8.85C13.8235 8.85 15.2767 10.263 15.2767 12C15.2767 13.737 13.8235 15.15 12.037 15.15Z" fill="#BEBEBE"/>
</svg>
