<svg width="24" height="24" viewBox="0 0 24 24" fill="none" xmlns="http://www.w3.org/2000/svg">
<path d="M17.3098 7.32797H15.7899V6.70069C15.7894 4.65965 14.0895 3 12.0004 3C9.91119 3 8.21117 4.65983 8.21117 6.70034V7.32748H6.69072C5.75696 7.32748 5 8.0668 5 8.97855V18.0876C5 19.6964 6.3348 21 7.98223 21H16.0184C17.6651 21 19 19.6964 19 18.0883V8.97926C19.0006 8.06683 18.2436 7.32819 17.3099 7.32819L17.3098 7.32797ZM9.35857 6.70069C9.35857 5.27818 10.5436 4.12096 12.0003 4.12096C13.4569 4.12096 14.6419 5.27821 14.6419 6.70069V7.32783H9.35923V6.70069H9.35857ZM12.0003 14.7242C9.91093 14.7242 8.21106 13.0637 8.21106 11.0235C8.21106 10.7139 8.46803 10.463 8.78507 10.463C9.10212 10.463 9.35908 10.7139 9.35908 11.0235C9.35908 12.446 10.5441 13.6032 12.0008 13.6032C13.4574 13.6032 14.6424 12.446 14.6424 11.0235C14.6424 10.7139 14.8994 10.463 15.2165 10.463C15.5335 10.463 15.7905 10.7139 15.7905 11.0235C15.7893 13.0644 14.0895 14.7242 12.0002 14.7242H12.0003Z" fill="#97949B"/>
</svg>
