<svg width="16" height="16" viewBox="0 0 16 16" fill="none" xmlns="http://www.w3.org/2000/svg">
<rect width="16" height="16" fill="white"/>
<path d="M12.5512 3.84709H11.2485V3.2895C11.248 1.47525 9.79103 0 8.00031 0C6.20959 0 4.75243 1.47541 4.75243 3.28919V3.84665H3.44919C2.64883 3.84665 2 4.50382 2 5.31427V13.4112C2 14.8412 3.14411 16 4.55619 16H11.4443C12.8558 16 14 14.8412 14 13.4118V5.3149C14.0005 4.50385 13.3517 3.84728 12.5513 3.84728L12.5512 3.84709ZM5.73592 3.2895C5.73592 2.02505 6.75167 0.996405 8.00022 0.996405C9.24876 0.996405 10.2645 2.02508 10.2645 3.2895V3.84696H5.73648V3.2895H5.73592ZM8.00022 10.4215C6.20937 10.4215 4.75234 8.9455 4.75234 7.13201C4.75234 6.8568 4.9726 6.63374 5.24435 6.63374C5.5161 6.63374 5.73636 6.8568 5.73636 7.13201C5.73636 8.39646 6.75211 9.4251 8.00066 9.4251C9.2492 9.4251 10.265 8.39643 10.265 7.13201C10.265 6.8568 10.4852 6.63374 10.757 6.63374C11.0287 6.63374 11.249 6.8568 11.249 7.13201C11.248 8.94614 9.791 10.4215 8.00016 10.4215H8.00022Z" fill="black"/>
</svg>
