<svg width="24" height="24" viewBox="0 0 24 24" fill="none" xmlns="http://www.w3.org/2000/svg">
<path fill-rule="evenodd" clip-rule="evenodd" d="M7.6348 6.00317C8.64752 2.53528 11.8478 0 15.6423 0C20.2597 0 24.0004 3.74072 24.0004 8.34983C24.0004 11.2883 22.48 13.8738 20.1813 15.3621V13.2464C20.6705 12.7937 21.0917 12.269 21.4287 11.6898H20.0114C19.654 10.6275 18.7658 9.80587 17.6643 9.54251C17.7085 9.14939 17.7381 8.75384 17.7381 8.34983C17.7381 7.78204 17.6796 7.2226 17.6045 6.67986H13.6968C13.6441 7.06023 13.5996 7.4488 13.5777 7.8427C12.6417 6.54282 11.1152 5.69678 9.39046 5.69678C8.77393 5.69678 8.18274 5.80488 7.6348 6.00317ZM18.6895 16.1273C18.7491 15.9448 18.7813 15.7502 18.7813 15.5485V14.242C18.4725 14.4064 18.149 14.5473 17.8132 14.6623C18.1956 13.955 18.5098 13.2039 18.756 12.4239C18.6082 11.5358 17.8315 10.8531 16.9031 10.8531H13.1468C13.1468 9.74141 12.6645 8.74288 11.8976 8.05526C11.8947 8.153 11.8932 8.25116 11.8932 8.34983C11.8932 8.91762 11.9433 9.46871 12.0101 10.0198H11.0724C11.1979 10.2713 11.2686 10.5543 11.2686 10.8531H7.68222C8.74441 14.2405 11.9051 16.6997 15.6423 16.6997C16.7176 16.6997 17.7455 16.4968 18.6895 16.1273ZM7.5612 10.4278C7.39117 9.76337 7.30078 9.06711 7.30078 8.34983C7.30078 8.13625 7.3088 7.92453 7.32454 7.71497C7.83944 7.37542 8.44296 7.15922 9.09309 7.10836C9.01596 7.51092 8.97075 7.92585 8.97075 8.34983C8.97075 8.57412 8.9834 8.79589 9.00674 9.01462C8.67954 9.08324 8.38294 9.23769 8.1418 9.45312C7.8577 9.70693 7.6506 10.0454 7.5612 10.4278ZM18.9655 5.0099H21.4287C20.6271 3.63218 19.3496 2.5634 17.8132 2.03736C18.3142 2.96419 18.6983 3.96617 18.9655 5.0099ZM17.2454 5.0099C16.8864 3.81587 16.3436 2.70534 15.6506 1.70337C14.9576 2.70534 14.4148 3.81587 14.0558 5.0099H17.2454ZM12.3357 11.6898H9.87253C10.6741 13.0758 11.9516 14.1363 13.488 14.6623C12.987 13.7355 12.6029 12.7335 12.3357 11.6898ZM9.87253 5.0099H12.3357C12.6029 3.96617 12.987 2.96419 13.488 2.03736C11.9516 2.5634 10.6741 3.62383 9.87253 5.0099ZM14.0558 11.6898C14.4148 12.8838 14.9576 13.9943 15.6506 14.9963C16.3436 13.9943 16.8864 12.8838 17.2454 11.6898H14.0558ZM19.408 8.34983C19.408 8.91762 19.3579 9.46871 19.2911 10.0198H22.1134C22.247 9.48541 22.3305 8.92597 22.3305 8.34983C22.3305 7.77369 22.247 7.21425 22.1134 6.67986H19.2911C19.3579 7.23095 19.408 7.78204 19.408 8.34983Z" fill="#161318"/>
<path d="M10.3299 19.3048H8.45177C7.93527 19.3048 7.51268 18.8822 7.51268 18.3657H0.948476V22.122C0.948476 23.155 1.79365 24.0002 2.82665 24.0002H15.9644C16.9974 24.0002 17.8426 23.155 17.8426 22.122V18.3657H11.269C11.269 18.8822 10.8464 19.3048 10.3299 19.3048ZM16.9035 10.853H13.1472C13.1472 8.77764 11.4662 7.09668 9.39085 7.09668C7.31547 7.09668 5.63451 8.77764 5.63451 10.853H1.87817C0.845177 10.853 0 11.6982 0 12.7312V15.5484C0 16.5908 0.835786 17.4266 1.87817 17.4266H7.51268V16.4875C7.51268 15.971 7.93527 15.5484 8.45177 15.5484H10.3299C10.8464 15.5484 11.269 15.971 11.269 16.4875V17.4266H16.9035C17.9365 17.4266 18.7817 16.5814 18.7817 15.5484V12.7312C18.7817 11.6982 17.9365 10.853 16.9035 10.853ZM7.51268 10.853C7.51268 9.82003 8.35786 8.97485 9.39085 8.97485C10.4238 8.97485 11.269 9.82003 11.269 10.853H7.50329H7.51268Z" fill="#161318"/>
</svg>
