<svg width="68" height="68" viewBox="0 0 68 68" fill="none" xmlns="http://www.w3.org/2000/svg">
<path d="M60.3234 32.0692C61.3418 30.8144 61.9668 29.1598 61.9668 27.5787C61.9668 24.4328 59.5033 21.9153 56.5277 21.9153C53.5527 21.9153 51.0887 24.4325 51.0887 27.5783L60.3234 32.0692ZM60.3234 32.0692C59.3044 33.3247 57.953 34.1108 56.5277 34.1108M60.3234 32.0692L56.5277 34.1108M56.5277 34.1108C55.103 34.1108 53.7516 33.3247 52.7325 32.0691M56.5277 34.1108L52.7325 32.0691M52.7325 32.0691C51.714 30.8144 51.0888 29.1596 51.0887 27.5784L52.7325 32.0691Z" stroke="#BEBEBE" stroke-width="1.4"/>
<path d="M56.8562 37.0116C58.458 37.0116 59.9479 36.5081 61.1849 35.6504C61.2936 35.575 61.3797 35.5701 61.4228 35.5798C64.7671 36.3356 67.2997 39.4326 67.2997 43.1694C67.2997 43.4688 67.1359 43.8433 66.6409 44.2711C66.1479 44.6972 65.3936 45.1127 64.4009 45.4755C62.4211 46.1992 59.6395 46.6606 56.533 46.6606C53.4266 46.6606 50.645 46.1992 48.6652 45.4755C47.6724 45.1127 46.9182 44.6972 46.4252 44.2711C45.9301 43.8433 45.7664 43.4688 45.7664 43.1694C45.7664 39.4326 48.2987 36.3356 51.6432 35.5798C51.6863 35.5701 51.7724 35.575 51.8812 35.6505C53.118 36.5081 54.6081 37.0116 56.2099 37.0116H56.8562Z" stroke="#BEBEBE" stroke-width="1.4"/>
<path d="M16.2136 31.9619C17.2992 30.6245 17.9657 28.8607 17.9657 27.1737C17.9657 23.816 15.336 21.1263 12.1561 21.1263C8.97674 21.1263 6.34651 23.8158 6.34648 27.1734L16.2136 31.9619ZM16.2136 31.9619C15.1275 33.3 13.6835 34.1423 12.1561 34.1423M16.2136 31.9619L12.1561 34.1423M12.1561 34.1423C10.6292 34.1423 9.18522 33.3001 8.09898 31.9618M12.1561 34.1423L8.09898 31.9618M8.09898 31.9618C7.01338 30.6244 6.34663 28.8605 6.34648 27.1734L8.09898 31.9618Z" stroke="#BEBEBE" stroke-width="1.4"/>
<path d="M12.5014 37.1334C14.2013 37.1334 15.7817 36.5958 17.0913 35.6809C17.1974 35.6067 17.2838 35.6008 17.329 35.6109C20.9069 36.4073 23.6175 39.7146 23.6175 43.7051C23.6175 44.0394 23.4344 44.4472 22.9043 44.9053C22.3762 45.3616 21.5714 45.8044 20.516 46.1901C18.4109 46.9596 15.4563 47.4493 12.1587 47.4493C8.86116 47.4493 5.90654 46.9596 3.80149 46.1901C2.74613 45.8044 1.94123 45.3616 1.41317 44.9053C0.883102 44.4472 0.7 44.0394 0.7 43.7051C0.7 39.7146 3.41035 36.4074 6.98842 35.6109C7.03364 35.6008 7.12 35.6067 7.22621 35.6809C8.53563 36.5959 10.1163 37.1334 11.8161 37.1334H12.5014Z" stroke="#BEBEBE" stroke-width="1.4"/>
<path d="M34.6549 38.3323C37.7604 38.3323 40.6338 37.2893 42.9663 35.5307C49.8456 36.8342 55.091 43.0864 55.091 50.6397C55.091 51.458 54.6395 52.3268 53.6242 53.2043C52.6108 54.08 51.1037 54.9004 49.1806 55.6033C45.3401 57.0071 39.9879 57.8892 34.042 57.8892C28.0961 57.8892 22.7439 57.0071 18.9033 55.6033C16.9802 54.9004 15.4731 54.08 14.4598 53.2043C13.4444 52.3268 12.993 51.458 12.993 50.6397C12.993 43.0864 18.2378 36.8342 25.1176 35.5307C27.4497 37.2893 30.3237 38.3323 33.4291 38.3323H34.6549Z" fill="#EAEAEA" stroke="#BEBEBE" stroke-width="1.4"/>
<path d="M41.7214 29.9823C43.7366 27.4995 44.9788 24.2236 44.9788 21.0695C44.9788 14.7774 40.0462 9.7 34.0347 9.7C28.0242 9.7 23.0907 14.7769 23.0906 21.0689L41.7214 29.9823ZM41.7214 29.9823C39.7056 32.4659 36.9779 34.0867 34.0347 34.0867M41.7214 29.9823L34.0347 34.0867M34.0347 34.0867C31.0923 34.0867 28.3648 32.4659 26.3489 29.9823M34.0347 34.0867L26.3489 29.9823M26.3489 29.9823C24.3335 27.4994 23.0909 24.2233 23.0906 21.069L26.3489 29.9823Z" fill="#EAEAEA" stroke="#BEBEBE" stroke-width="1.4"/>
<path fill-rule="evenodd" clip-rule="evenodd" d="M56.5277 34.8108C59.9134 34.8108 62.6668 31.087 62.6668 27.5787C62.6668 24.0701 59.9134 21.2153 56.5277 21.2153C53.1427 21.2153 50.3887 24.0698 50.3887 27.5784C50.389 31.087 53.1429 34.8108 56.5277 34.8108ZM51.7887 27.5783C51.7887 24.7953 53.9628 22.6153 56.5277 22.6153C59.0931 22.6153 61.2668 24.7954 61.2668 27.5787C61.2668 28.9867 60.7052 30.488 59.7799 31.628C58.8534 32.7695 57.6854 33.4108 56.5277 33.4108C55.3706 33.4108 54.2026 32.7696 53.276 31.628C52.3506 30.4879 51.7888 28.9864 51.7887 27.5783Z" fill="#BEBEBE"/>
<path fill-rule="evenodd" clip-rule="evenodd" d="M61.461 36.3093C60.137 37.1935 58.5545 37.7117 56.8562 37.7117H56.2099C54.5117 37.7117 52.929 37.1935 51.605 36.3093C48.6831 37.0646 46.4664 39.8236 46.4664 43.1695C46.4664 43.1896 46.473 43.3874 46.8829 43.7416C47.2887 44.0923 47.9575 44.4717 48.9055 44.8182C50.7901 45.507 53.4866 45.9607 56.533 45.9607C59.5795 45.9607 62.276 45.507 64.1606 44.8182C65.1085 44.4717 65.7774 44.0923 66.1832 43.7416C66.5931 43.3874 66.5997 43.1896 66.5997 43.1695C66.5997 39.8237 64.3827 37.0646 61.461 36.3093ZM60.786 35.0753C61.0179 34.9145 61.3018 34.8349 61.5771 34.8971C65.2495 35.727 67.9997 39.1148 67.9997 43.1695C67.9997 45.4841 62.866 47.3607 56.533 47.3607C50.2001 47.3607 45.0664 45.4841 45.0664 43.1695C45.0664 39.1148 47.8163 35.727 51.4889 34.8971C51.7642 34.8349 52.0482 34.9145 52.2801 35.0753C53.4054 35.8557 54.7574 36.3117 56.2099 36.3117H56.8562C58.3087 36.3117 59.6606 35.8556 60.786 35.0753Z" fill="#BEBEBE"/>
<path fill-rule="evenodd" clip-rule="evenodd" d="M12.1561 34.8423C15.7461 34.8423 18.6657 30.8938 18.6657 27.1737C18.6657 23.4534 15.7461 20.4263 12.1561 20.4263C8.56669 20.4263 5.64648 23.4531 5.64648 27.1734C5.64678 30.8938 8.56699 34.8423 12.1561 34.8423ZM7.04648 27.1733C7.04654 24.1785 9.3868 21.8263 12.1561 21.8263C14.9259 21.8263 17.2657 24.1787 17.2657 27.1737C17.2657 28.6876 16.6625 30.2981 15.6701 31.5207C14.6765 32.7449 13.4159 33.4423 12.1561 33.4423C10.8968 33.4423 9.63622 32.745 8.64247 31.5207C7.64999 30.298 7.04664 28.6873 7.04648 27.1733Z" fill="#BEBEBE"/>
<path fill-rule="evenodd" clip-rule="evenodd" d="M17.3684 36.3395C15.9715 37.2809 14.2982 37.8332 12.5014 37.8332H11.8161C10.0194 37.8332 8.34587 37.281 6.94899 36.3395C3.79432 37.1365 1.4 40.1055 1.4 43.705C1.4 43.76 1.42598 43.9911 1.87087 44.3756C2.31172 44.7565 3.03123 45.1632 4.0418 45.5325C6.05163 46.2672 8.92118 46.7492 12.1587 46.7492C15.3963 46.7492 18.2658 46.2672 20.2757 45.5325C21.2863 45.1632 22.0058 44.7565 22.4466 44.3756C22.8915 43.9911 22.9175 43.76 22.9175 43.705C22.9175 40.1056 20.5229 37.1365 17.3684 36.3395ZM16.6904 35.1069C16.9217 34.9453 17.2056 34.8661 17.4811 34.9275C21.3882 35.7972 24.3175 39.3959 24.3175 43.705C24.3175 46.1593 18.8739 48.1492 12.1587 48.1492C5.44354 48.1492 0 46.1593 0 43.705C0 39.3959 2.92895 35.7973 6.83633 34.9275C7.11182 34.8661 7.39579 34.9454 7.62714 35.107C8.82468 35.9437 10.2664 36.4332 11.8161 36.4332H12.5014C14.0511 36.4332 15.4926 35.9437 16.6904 35.1069Z" fill="#BEBEBE"/>
<path d="M42.7841 34.7871C40.5249 36.5707 37.7071 37.6323 34.6549 37.6323H33.4291C30.3768 37.6323 27.5585 36.5707 25.2998 34.7871C17.9248 36.0227 12.293 42.6482 12.293 50.6397C12.293 55.0299 22.0301 58.5892 34.042 58.5892C46.0538 58.5892 55.791 55.0299 55.791 50.6397C55.791 42.6482 50.1587 36.0227 42.7841 34.7871Z" fill="#EAEAEA"/>
<path fill-rule="evenodd" clip-rule="evenodd" d="M43.1322 36.278C40.7315 38.0093 37.8077 39.0323 34.6549 39.0323H33.4291C30.2764 39.0323 27.3521 38.0094 24.9517 36.278C18.5585 37.6383 13.693 43.5209 13.693 50.6397C13.693 51.1786 13.9873 51.8708 14.9175 52.6747C15.8436 53.475 17.2653 54.2593 19.1437 54.9459C22.889 56.3149 28.1561 57.1892 34.042 57.1892C39.9279 57.1892 45.195 56.3149 48.9403 54.9459C50.8186 54.2593 52.2403 53.475 53.1665 52.6747C54.0967 51.8708 54.391 51.1786 54.391 50.6397C54.391 43.5209 49.525 37.6383 43.1322 36.278ZM42.7841 34.7871C40.5249 36.5707 37.7071 37.6323 34.6549 37.6323H33.4291C30.3768 37.6323 27.5585 36.5707 25.2998 34.7871C17.9248 36.0227 12.293 42.6482 12.293 50.6397C12.293 55.0299 22.0301 58.5892 34.042 58.5892C46.0538 58.5892 55.791 55.0299 55.791 50.6397C55.791 42.6482 50.1587 36.0227 42.7841 34.7871Z" fill="#BEBEBE"/>
<path d="M34.0347 34.7867C40.4564 34.7867 45.6788 27.7238 45.6788 21.0695C45.6788 14.4147 40.4564 9 34.0347 9C27.6142 9 22.3906 14.4142 22.3906 21.069C22.3912 27.7238 27.6147 34.7867 34.0347 34.7867Z" fill="#EAEAEA"/>
<path fill-rule="evenodd" clip-rule="evenodd" d="M34.0347 34.7867C40.4564 34.7867 45.6788 27.7238 45.6788 21.0695C45.6788 14.4147 40.4564 9 34.0347 9C27.6142 9 22.3906 14.4142 22.3906 21.069C22.3912 27.7238 27.6147 34.7867 34.0347 34.7867ZM44.2788 21.0695C44.2788 24.0505 43.0999 27.1731 41.1779 29.5412C39.2546 31.9107 36.7104 33.3867 34.0347 33.3867C31.36 33.3867 28.8158 31.9108 26.8924 29.5411C24.9701 27.173 23.7909 24.0501 23.7906 21.0689C23.7907 15.1396 28.4343 10.4 34.0347 10.4C39.6361 10.4 44.2788 15.1401 44.2788 21.0695Z" fill="#BEBEBE"/>
</svg>
