<svg width="24" height="24" viewBox="0 0 24 24" fill="none" xmlns="http://www.w3.org/2000/svg">
<path fill-rule="evenodd" clip-rule="evenodd" d="M21.514 8.4337C21.6292 8.74589 21.9221 8.9522 22.2532 8.9522L22.2533 8.95211C23.218 8.95211 24.0005 9.73439 24.0005 10.6993V13.3153C24.0005 14.28 23.218 15.0624 22.258 15.0624C21.9172 15.0624 21.6244 15.2689 21.4996 15.5905C21.4277 15.7874 21.346 15.989 21.2548 16.1858C21.1156 16.4929 21.1733 16.8481 21.4036 17.0833C22.0949 17.7746 22.0949 18.8786 21.4181 19.5602L19.5605 21.4178C18.8837 22.0754 17.7653 22.0754 17.0981 21.4178C16.8628 21.1826 16.4979 21.1249 16.1909 21.2639C15.9989 21.3551 15.7926 21.4415 15.591 21.5182C15.2694 21.6384 15.0582 21.9264 15.0582 22.2575C15.0582 23.2175 14.2757 24 13.3157 24H10.6948C10.2339 24 9.802 23.8177 9.46596 23.4913C9.13465 23.1601 8.95236 22.7232 8.95236 22.2577C8.95236 21.9264 8.74585 21.6384 8.42427 21.5184C8.21794 21.4416 8.01145 21.3553 7.81471 21.264C7.51714 21.1249 7.14753 21.1826 6.92188 21.4129C6.90743 21.4274 6.88828 21.4418 6.87383 21.4514C6.21136 22.0803 5.09305 22.0658 4.44502 21.4178L2.59216 19.5649C2.2657 19.2338 2.08324 18.7969 2.08324 18.3265C2.08324 17.8609 2.2657 17.4241 2.59216 17.0929C2.60661 17.0833 2.61619 17.0738 2.62576 17.0642C2.83696 16.8337 2.88013 16.4929 2.74572 16.1905C2.65449 15.9985 2.56813 15.7873 2.49135 15.5856C2.37627 15.2688 2.08339 15.0625 1.75694 15.0625C0.782639 15.0625 0.000174098 14.28 0 13.3151V10.6991C0 9.73442 0.782461 8.95196 1.7425 8.95196C2.07383 8.95196 2.36651 8.74565 2.48177 8.42877C2.56342 8.21759 2.64978 8.01127 2.74102 7.81452C2.79377 7.69926 2.8178 7.584 2.8178 7.46404C2.8178 7.25286 2.73614 7.06082 2.59215 6.91683C2.2657 6.58566 2.08323 6.14886 2.08323 5.6784C2.08323 5.2128 2.2657 4.77598 2.59215 4.44482L4.44501 2.59197C5.10748 1.93908 6.24982 1.93908 6.90743 2.59197C7.14264 2.82248 7.50741 2.87994 7.80984 2.74083C7.98616 2.65913 8.16627 2.58902 8.34328 2.52011C8.36393 2.51208 8.38454 2.50405 8.4051 2.49603C8.74581 2.3665 8.95231 2.07853 8.95231 1.75208C8.95231 0.782461 9.73459 0 10.6946 0H13.3155C14.2755 0 15.058 0.782461 15.058 1.7425C15.058 2.07834 15.2692 2.37119 15.5956 2.49603C15.6953 2.53341 15.7918 2.57448 15.8857 2.61442C16.3172 2.79805 16.6926 2.95777 17.0644 2.62557C17.074 2.61129 17.0836 2.60154 17.098 2.59196C17.7556 1.93907 18.898 1.93907 19.5556 2.59196L21.4132 4.44482C21.7394 4.76641 21.9219 5.20812 21.9219 5.68325C21.9219 6.14885 21.7396 6.58567 21.4132 6.91683C21.1779 7.14735 21.1156 7.50255 21.2596 7.81455C21.3508 8.01601 21.4372 8.2225 21.514 8.4337ZM4.40662 11.9951C4.40662 16.2506 7.86072 19.5889 12.0003 19.5889C16.1859 19.5889 19.5941 16.1809 19.5941 11.9951C19.5941 7.81709 16.195 4.40141 12.0003 4.40141C7.81464 4.40141 4.40662 7.80956 4.40662 11.9951ZM13.5118 12.8379L15.5955 14.9355L15.5955 14.9356C15.7823 15.1236 15.7814 15.4276 15.5931 15.6145C15.4054 15.8015 15.101 15.8004 14.9144 15.6122L12.831 13.5149C12.5768 13.6559 12.2952 13.7377 12.0001 13.7377C11.0395 13.7377 10.258 12.956 10.258 11.9956C10.258 11.2027 10.794 10.5419 11.5204 10.333V7.37766C11.5204 7.11247 11.7353 6.89762 12.0005 6.89762C12.2657 6.89762 12.4805 7.11249 12.4805 7.37766V10.3332C13.2053 10.5424 13.7381 11.2029 13.7381 11.9956C13.7381 12.2945 13.6538 12.5825 13.5118 12.8379Z" fill="#161318"/>
</svg>
