<svg width="24" height="24" viewBox="0 0 24 24" fill="none" xmlns="http://www.w3.org/2000/svg">
<path d="M7.71076 6.24023C7.13943 6.67184 6.42687 6.92874 5.65499 6.92874H5.34501C4.57313 6.92874 3.86043 6.67184 3.28924 6.24023C1.42419 6.53924 0 8.14256 0 10.0764C0 11.1388 2.46238 12.0001 5.5 12.0001C8.53762 12.0001 11 11.1388 11 10.0764C11 8.14256 9.57567 6.53924 7.71076 6.24023Z" fill="#454246"/>
<path d="M5.49931 6.24015C7.12324 6.24015 8.44393 4.53098 8.44393 2.92072C8.44393 1.31032 7.12324 0 5.49931 0C3.87564 0 2.55469 1.31019 2.55469 2.92058C2.55482 4.53098 3.87578 6.24015 5.49931 6.24015Z" fill="#454246"/>
<path d="M20.7108 18.2397C20.1394 18.6714 19.4269 18.9283 18.655 18.9283H18.345C17.5731 18.9283 16.8604 18.6714 16.2892 18.2397C14.4242 18.5388 13 20.1421 13 22.0759C13 23.1383 15.4624 23.9996 18.5 23.9996C21.5376 23.9996 24 23.1383 24 22.0759C24 20.1421 22.5757 18.5388 20.7108 18.2397Z" fill="#454246"/>
<path d="M18.4993 18.2402C20.1232 18.2402 21.4439 16.531 21.4439 14.9207C21.4439 13.3103 20.1232 12 18.4993 12C16.8756 12 15.5547 13.3102 15.5547 14.9206C15.5548 16.531 16.8758 18.2402 18.4993 18.2402Z" fill="#454246"/>
<path d="M13.8215 1.52712C17.0653 1.52712 19.7284 4.18093 19.9819 7.54166L18.6919 6.17882C18.4097 5.88059 17.9527 5.88059 17.6705 6.17882C17.3883 6.47706 17.3883 6.96011 17.6705 7.25835L20.2187 9.95074C20.3598 10.0999 20.5448 10.1744 20.7294 10.1744C20.9144 10.1744 21.099 10.0999 21.2401 9.95074L23.7884 7.25835C24.0705 6.96011 24.0705 6.47706 23.7884 6.17882C23.5062 5.88059 23.0491 5.88059 22.767 6.17882L21.4294 7.59196C21.1961 3.36549 17.8781 0 13.8217 0C13.4224 0 13.0994 0.341376 13.0994 0.763423C13.0991 1.18575 13.4221 1.52712 13.8215 1.52712ZM10.1785 22.4727C6.9347 22.4727 4.27185 19.8189 4.01811 16.4583L5.3081 17.8217C5.44919 17.9708 5.63412 18.0454 5.8188 18.0454C6.00373 18.0454 6.18841 17.9708 6.3295 17.8217C6.61168 17.5235 6.61168 17.0404 6.3295 16.7422L3.78127 14.049C3.49909 13.7507 3.04205 13.7507 2.75987 14.049L0.211638 16.7422C-0.0705458 17.0404 -0.0705458 17.5235 0.211638 17.8217C0.493821 18.12 0.950861 18.12 1.23304 17.8217L2.57063 16.408C2.80418 20.6345 6.12188 24 10.1783 24C10.5776 24 10.9006 23.6586 10.9006 23.2366C10.9009 22.8143 10.5779 22.4727 10.1785 22.4727Z" fill="#454246"/>
</svg>
