<svg width="20" height="20" viewBox="0 0 20 20" fill="none" xmlns="http://www.w3.org/2000/svg">
<path d="M9.99843 5.82596C10.4893 5.82596 10.8872 5.4279 10.8872 4.93715C10.8872 4.44624 10.4892 4.04834 9.99843 4.04834C6.7178 4.04818 4.04883 6.71715 4.04883 9.99794C4.04883 13.2787 6.71764 15.9475 9.99843 15.9475C13.2792 15.9475 15.948 13.2786 15.948 9.99794C15.948 9.50703 15.55 9.10913 15.0592 9.10913C14.5683 9.10913 14.1704 9.50719 14.1704 9.99794C14.1704 12.2983 12.2991 14.1698 9.99899 14.1698C7.69847 14.1698 5.82716 12.2983 5.82716 9.99794C5.82716 7.69755 7.69843 5.82612 9.99859 5.82612L9.99843 5.82596Z" fill="black"/>
<path d="M19.1109 9.11085C18.6198 9.11085 18.2219 9.50899 18.2219 9.99984C18.2219 14.5333 14.5336 18.2217 10 18.2217C5.4664 18.2217 1.77813 14.5334 1.77813 9.99984C1.77813 5.46624 5.4664 1.77797 10 1.77797C10.491 1.77797 10.889 1.37984 10.889 0.888986C10.889 0.397976 10.4909 4.02022e-09 10 4.02022e-09C4.48581 -0.000155066 0 4.48581 0 10C0 15.5142 4.48581 20 10 20C15.5142 20 20 15.5142 20 10C20 9.50899 19.602 9.11101 19.111 9.11101L19.1109 9.11085Z" fill="black"/>
<path d="M19.108 2.02409H17.9725V0.88881C17.9725 0.397897 17.5745 0 17.0837 0C16.5928 0 16.1949 0.398056 16.1949 0.88881V2.54476L10.5584 8.18127C10.3814 8.12655 10.1934 8.09694 9.99869 8.09694C8.95051 8.09694 8.09766 8.94964 8.09766 9.99798C8.09766 11.0463 8.95051 11.899 9.99869 11.899C11.0469 11.899 11.8997 11.0463 11.8997 9.99798C11.8997 9.80329 11.8701 9.61526 11.8154 9.43825L17.4519 3.80214H19.108C19.5989 3.80214 19.9968 3.40409 19.9968 2.91333C19.9968 2.42226 19.5989 2.02437 19.108 2.02437L19.108 2.02409Z" fill="black"/>
</svg>
