<svg width="20" height="20" viewBox="0 0 20 20" fill="none" xmlns="http://www.w3.org/2000/svg">
<path fill-rule="evenodd" clip-rule="evenodd" d="M1.3334 0C0.59694 0 0 0.59694 0 1.3334V18.6666C0 19.4031 0.59694 20 1.3334 20H18.6666C19.4031 20 20 19.4031 20 18.6666V1.3334C20 0.59694 19.4031 0 18.6666 0H1.3334ZM4.44441 3.33331C3.83072 3.33331 3.33331 3.83072 3.33331 4.44441V6.22221C3.33331 6.8359 3.83072 7.33331 4.44441 7.33331C5.05809 7.33331 5.55551 6.8359 5.55551 6.22221V5.55551H8.88882V14.4443H8.44442C7.83073 14.4443 7.33331 14.9417 7.33331 15.5554C7.33331 16.1691 7.83073 16.6665 8.44442 16.6665H11.5554C12.1691 16.6665 12.6665 16.1691 12.6665 15.5554C12.6665 14.9417 12.1691 14.4443 11.5554 14.4443H11.111V5.55551H14.4443V6.22221C14.4443 6.8359 14.9417 7.33331 15.5554 7.33331C16.1691 7.33331 16.6665 6.8359 16.6665 6.22221V4.44441C16.6665 3.83072 16.1691 3.33331 15.5554 3.33331H4.44441Z" fill="black"/>
</svg>
