<svg width="24" height="24" viewBox="0 0 24 24" fill="none" xmlns="http://www.w3.org/2000/svg">
<path d="M12.5 1C11.3313 1 10.3863 1.55022 10.3863 2.23058V3.05986H8.85233V5.56587H16.1473V3.05986H14.6045V2.23058C14.6045 1.55001 13.6686 1 12.4998 1H12.5ZM5.70447 4.59386C5.31491 4.59386 5 4.94282 5 5.36983V21.8055C5 22.2325 5.31492 22.5725 5.70447 22.5725H19.2955C19.6851 22.5725 20 22.2325 20 21.8055V5.36983C20 4.94284 19.6851 4.59386 19.2955 4.59386H17.289V6.13678C17.2888 6.4519 17.0334 6.70748 16.7181 6.70748H8.28162H8.28182C7.96651 6.70748 7.71112 6.45189 7.71092 6.13678V4.59406H5.70437L5.70447 4.59386ZM10.0833 8.64259H10.0831C10.095 8.64219 10.107 8.64219 10.1187 8.64259C10.3542 8.62547 10.5758 8.75486 10.6767 8.96826C10.7774 9.18165 10.7364 9.43506 10.5735 9.60587L9.17332 11.1399L9.17352 11.1397C9.06523 11.2595 8.91136 11.328 8.74991 11.328C8.58827 11.328 8.4344 11.2595 8.32631 11.1397L7.38992 10.1141C7.27008 10.0064 7.2014 9.85333 7.20061 9.69209C7.20001 9.53104 7.2673 9.37737 7.38613 9.26848C7.50497 9.15979 7.66422 9.10644 7.82467 9.12138C7.98492 9.13631 8.13143 9.21832 8.22817 9.34731L8.74532 9.90905L9.73527 8.82991C9.82524 8.72819 9.94846 8.6617 10.083 8.64259L10.0833 8.64259ZM12.7943 9.92673L12.7941 9.92693C12.8031 9.92654 12.812 9.92654 12.821 9.92693C12.8299 9.92654 12.8389 9.92654 12.8478 9.92693C12.8568 9.92654 12.8658 9.92654 12.8747 9.92693C12.8837 9.92654 12.8926 9.92654 12.9014 9.92693C12.9103 9.92654 12.9193 9.92654 12.9283 9.92693C12.9402 9.92654 12.9521 9.92654 12.9639 9.92693H17.1822C17.3349 9.92474 17.4822 9.98387 17.5911 10.0912C17.6998 10.1985 17.7611 10.3448 17.7611 10.4977C17.7611 10.6503 17.6998 10.7968 17.5911 10.9041C17.4822 11.0112 17.3349 11.0706 17.1822 11.0684H12.9639C12.6488 11.1151 12.3554 10.8976 12.3086 10.5823C12.2618 10.2671 12.4794 9.97374 12.7945 9.92696L12.7943 9.92673ZM10.0833 12.495L10.0831 12.4952C10.095 12.4948 10.107 12.4948 10.1187 12.4952C10.3542 12.4779 10.5758 12.6073 10.6767 12.8207C10.7774 13.0341 10.7364 13.2875 10.5735 13.4583L9.17332 14.9923H9.17352C9.06523 15.1121 8.91136 15.1804 8.74991 15.1804C8.58827 15.1804 8.4344 15.1121 8.32631 14.9923L7.38992 13.9667C7.27008 13.859 7.2014 13.7058 7.20061 13.5447C7.20001 13.3837 7.2673 13.2298 7.38613 13.1211C7.50497 13.0124 7.66422 12.9589 7.82467 12.974C7.98492 12.9889 8.13143 13.0709 8.22817 13.1997L8.74532 13.7615L9.73527 12.6823V12.6825C9.82524 12.5806 9.94846 12.5143 10.083 12.4952L10.0833 12.495ZM12.8212 13.7792L12.821 13.7794C12.83 13.7792 12.8389 13.7792 12.8477 13.7794C12.8566 13.7792 12.8656 13.7792 12.8745 13.7794C12.8835 13.7792 12.8925 13.7792 12.9014 13.7794C12.9104 13.7792 12.9193 13.7792 12.9283 13.7794C12.94 13.779 12.952 13.779 12.9639 13.7794H17.182C17.3349 13.7772 17.4822 13.8365 17.5909 13.9436C17.6998 14.0509 17.7609 14.1974 17.7609 14.3501C17.7609 14.503 17.6998 14.6493 17.5909 14.7566C17.4822 14.8639 17.3349 14.923 17.182 14.921H12.9639C12.6486 14.9602 12.3612 14.7367 12.3217 14.4215C12.2823 14.1062 12.5061 13.8188 12.8212 13.7793L12.8212 13.7792ZM10.0833 16.3475L10.0831 16.3479C10.095 16.3475 10.107 16.3475 10.1187 16.3479C10.3542 16.3305 10.5758 16.4599 10.6767 16.6733C10.7774 16.8867 10.7364 17.1401 10.5735 17.3109L9.17332 18.8449H9.17352C9.06523 18.9648 8.91136 19.033 8.74991 19.033C8.58827 19.033 8.4344 18.9648 8.32631 18.8449L7.38992 17.8194C7.27008 17.7117 7.2014 17.5584 7.20061 17.3973C7.20001 17.2363 7.2673 17.0824 7.38613 16.9737C7.50497 16.8649 7.66422 16.8115 7.82467 16.8264C7.98492 16.8414 8.13143 16.9236 8.22817 17.0524L8.74532 17.6141L9.73527 16.535C9.82524 16.4333 9.94846 16.3668 10.083 16.3479L10.0833 16.3475ZM12.8479 17.6316L12.8477 17.632C12.8566 17.6318 12.8656 17.6318 12.8745 17.632C12.8835 17.6318 12.8924 17.6318 12.9014 17.632C12.9104 17.6318 12.9193 17.6318 12.9281 17.632C12.94 17.6316 12.952 17.6316 12.9639 17.632H17.182C17.3349 17.6298 17.482 17.6889 17.5909 17.7962C17.6996 17.9035 17.7609 18.0498 17.7609 18.2027C17.7609 18.3554 17.6996 18.5019 17.5909 18.6092C17.482 18.7165 17.3349 18.7756 17.182 18.7734H12.9639C12.6486 18.8055 12.3673 18.5758 12.3353 18.2607C12.3032 17.9456 12.5327 17.6641 12.8479 17.632L12.8479 17.6316Z" fill="#93A2C1"/>
</svg>
