<svg width="68" height="69" viewBox="0 0 68 69" fill="none" xmlns="http://www.w3.org/2000/svg">
<path d="M10 24.5C10 21.1863 12.6863 18.5 16 18.5H62C65.3137 18.5 68 21.1863 68 24.5V56.5C68 59.8137 65.3137 62.5 62 62.5H16C12.6863 62.5 10 59.8137 10 56.5V24.5Z" fill="white"/>
<path fill-rule="evenodd" clip-rule="evenodd" d="M62 19.9H16C13.4595 19.9 11.4 21.9595 11.4 24.5V56.5C11.4 59.0405 13.4595 61.1 16 61.1H62C64.5405 61.1 66.6 59.0405 66.6 56.5V24.5C66.6 21.9595 64.5405 19.9 62 19.9ZM16 18.5C12.6863 18.5 10 21.1863 10 24.5V56.5C10 59.8137 12.6863 62.5 16 62.5H62C65.3137 62.5 68 59.8137 68 56.5V24.5C68 21.1863 65.3137 18.5 62 18.5H16Z" fill="#BEBEBE"/>
<rect x="46" y="52.5" width="17" height="5" rx="2.5" fill="#EAEAEA"/>
<rect x="53" y="23.5" width="10" height="10" rx="2" fill="#EAEAEA"/>
<rect x="15" y="52.5" width="26" height="5" rx="2.5" fill="#EAEAEA"/>
<path d="M0 12.5C0 9.18629 2.68629 6.5 6 6.5H52C55.3137 6.5 58 9.18629 58 12.5V44.5C58 47.8137 55.3137 50.5 52 50.5H6C2.68629 50.5 0 47.8137 0 44.5V12.5Z" fill="#EAEAEA"/>
<path fill-rule="evenodd" clip-rule="evenodd" d="M52 7.9H6C3.45949 7.9 1.4 9.95949 1.4 12.5V44.5C1.4 47.0405 3.45949 49.1 6 49.1H52C54.5405 49.1 56.6 47.0405 56.6 44.5V12.5C56.6 9.95949 54.5405 7.9 52 7.9ZM6 6.5C2.68629 6.5 0 9.18629 0 12.5V44.5C0 47.8137 2.68629 50.5 6 50.5H52C55.3137 50.5 58 47.8137 58 44.5V12.5C58 9.18629 55.3137 6.5 52 6.5H6Z" fill="#BEBEBE"/>
<path d="M0 17.5H58V28.5H0V17.5Z" fill="white"/>
<path fill-rule="evenodd" clip-rule="evenodd" d="M56.6 18.9H1.4V27.1H56.6V18.9ZM0 17.5V28.5H58V17.5H0Z" fill="#BEBEBE"/>
</svg>
