<svg width="24" height="24" viewBox="0 0 24 24" fill="none" xmlns="http://www.w3.org/2000/svg">
<path d="M11.5985 1.80005C10.9183 1.80005 10.3129 2.17805 10.0363 2.80805L7.74273 7.6462L2.67703 8.4022C1.71923 8.55379 1.08923 9.4358 1.21523 10.368C1.26543 10.7204 1.44163 11.0482 1.69362 11.3258L5.42347 15.156L4.54246 20.5482C4.39086 21.4804 5.02085 22.388 5.97866 22.5386C6.35666 22.5888 6.76026 22.5386 7.08705 22.3368L11.5984 19.868L16.1087 22.3624C16.9405 22.8162 17.9987 22.514 18.4525 21.6822C18.6287 21.3298 18.7045 20.9518 18.6542 20.5738L17.7722 15.1815L21.5021 11.3758C22.1823 10.6956 22.1577 9.58623 21.4765 8.93163C21.2245 8.67963 20.8967 8.50343 20.5187 8.45323L15.454 7.64605L13.1604 2.7822C12.8838 2.1778 12.2784 1.7998 11.5982 1.7998L11.5985 1.80005Z" fill="#7134F3"/>
</svg>
