<svg width="24" height="24" viewBox="0 0 24 24" fill="none" xmlns="http://www.w3.org/2000/svg">
<path d="M13.9977 12.2996C16.0645 12.2996 17.7454 10.0263 17.7454 7.88462C17.7454 5.74276 16.0645 4 13.9977 4C11.9312 4 10.25 5.74258 10.25 7.88445C10.2502 10.0263 11.9314 12.2996 13.9977 12.2996Z" fill="#93A2C1"/>
<path d="M16.8137 12.2988C16.0866 12.8729 15.1796 13.2146 14.1973 13.2146H13.8027C12.8204 13.2146 11.9133 12.8729 11.1863 12.2988C8.81261 12.6965 7 14.829 7 17.4011C7 18.814 10.1339 19.9596 14 19.9596C17.8661 19.9596 21 18.814 21 17.4011C21 14.829 19.1872 12.6965 16.8137 12.2988Z" fill="#93A2C1"/>
<path d="M5.75 7.75V9.25H7.25C7.6625 9.25 8 9.5875 8 10C8 10.4125 7.6625 10.75 7.25 10.75H5.75V12.25C5.75 12.6625 5.4125 13 5 13C4.5875 13 4.25 12.6625 4.25 12.25V10.75H2.75C2.3375 10.75 2 10.4125 2 10C2 9.5875 2.3375 9.25 2.75 9.25H4.25V7.75C4.25 7.3375 4.5875 7 5 7C5.4125 7 5.75 7.3375 5.75 7.75Z" fill="#93A2C1"/>
</svg>
