<svg width="24" height="24" viewBox="0 0 24 24" fill="none" xmlns="http://www.w3.org/2000/svg">
<path d="M11.9977 12.2996C14.0645 12.2996 15.7454 10.0263 15.7454 7.88462C15.7454 5.74276 14.0645 4 11.9977 4C9.93121 4 8.25 5.74258 8.25 7.88445C8.25017 10.0263 9.93139 12.2996 11.9977 12.2996Z" fill="#93A2C1"/>
<path d="M14.8137 12.2998C14.0866 12.8738 13.1796 13.2155 12.1973 13.2155H11.8027C10.8204 13.2155 9.91328 12.8738 9.18631 12.2998C6.81261 12.6975 5 14.8299 5 17.402C5 18.815 8.13394 19.9606 12 19.9606C15.8661 19.9606 19 18.815 19 17.402C19 14.8299 17.1872 12.6975 14.8137 12.2998Z" fill="#93A2C1"/>
</svg>
