<svg width="20" height="20" viewBox="0 0 20 20" fill="none" xmlns="http://www.w3.org/2000/svg">
<g clip-path="url(#clip0_44323_8401)">
<path d="M9.99102 1.6665C5.39102 1.6665 1.66602 5.39984 1.66602 9.99984C1.66602 14.5998 5.39102 18.3332 9.99102 18.3332C14.5993 18.3332 18.3327 14.5998 18.3327 9.99984C18.3327 5.39984 14.5993 1.6665 9.99102 1.6665ZM15.766 6.6665H13.3077C13.041 5.62484 12.6577 4.62484 12.1577 3.69984C13.691 4.22484 14.966 5.2915 15.766 6.6665ZM9.99935 3.3665C10.691 4.3665 11.2327 5.47484 11.591 6.6665H8.40768C8.76602 5.47484 9.30768 4.3665 9.99935 3.3665ZM3.54935 11.6665C3.41602 11.1332 3.33268 10.5748 3.33268 9.99984C3.33268 9.42484 3.41602 8.8665 3.54935 8.33317H6.36602C6.29935 8.88317 6.24935 9.43317 6.24935 9.99984C6.24935 10.5665 6.29935 11.1165 6.36602 11.6665H3.54935ZM4.23268 13.3332H6.69102C6.95768 14.3748 7.34102 15.3748 7.84102 16.2998C6.30768 15.7748 5.03268 14.7165 4.23268 13.3332V13.3332ZM6.69102 6.6665H4.23268C5.03268 5.28317 6.30768 4.22484 7.84102 3.69984C7.34102 4.62484 6.95768 5.62484 6.69102 6.6665V6.6665ZM9.99935 16.6332C9.30768 15.6332 8.76602 14.5248 8.40768 13.3332H11.591C11.2327 14.5248 10.691 15.6332 9.99935 16.6332ZM11.9493 11.6665H8.04935C7.97435 11.1165 7.91602 10.5665 7.91602 9.99984C7.91602 9.43317 7.97435 8.87484 8.04935 8.33317H11.9493C12.0243 8.87484 12.0827 9.43317 12.0827 9.99984C12.0827 10.5665 12.0243 11.1165 11.9493 11.6665ZM12.1577 16.2998C12.6577 15.3748 13.041 14.3748 13.3077 13.3332H15.766C14.966 14.7082 13.691 15.7748 12.1577 16.2998V16.2998ZM13.6327 11.6665C13.6994 11.1165 13.7493 10.5665 13.7493 9.99984C13.7493 9.43317 13.6994 8.88317 13.6327 8.33317H16.4493C16.5827 8.8665 16.666 9.42484 16.666 9.99984C16.666 10.5748 16.5827 11.1332 16.4493 11.6665H13.6327Z" fill="#93A2C1"/>
</g>
<defs>
<clipPath id="clip0_44323_8401">
<rect width="20" height="20" fill="white"/>
</clipPath>
</defs>
</svg>
